<svg width="4889" height="6397" viewBox="0 0 4889 6397" fill="none" xmlns="http://www.w3.org/2000/svg">
<g clip-path="url(#clip0_128_159)">
<path d="M2375.38 1001.1C2412.97 996.457 2500.38 999.786 2538.19 1003.33C2634.24 1013.1 2728.43 1036.36 2817.97 1072.42C2904.8 1108.22 2985.31 1155.22 3066.42 1202.12L3306.09 1340.69L3554.19 1482.97C3624.82 1523.51 3699.3 1565.24 3765.28 1612.67C3831.04 1660.04 3890.55 1715.56 3942.34 1777.9C4050.84 1909.03 4134.25 2083.02 4159.27 2252.23C4173.3 2347.08 4170.7 2442.67 4170.42 2538.32L4169.96 2855.67L4170.17 3165.05C4170.21 3228.68 4172.3 3305.08 4166.24 3367.17C4140.18 3625.52 4013.66 3863.28 3813.89 4029.17C3724.04 4102.73 3657.09 4136.59 3556.69 4194.32L3290.84 4347.31L3040.2 4491.68C2965.55 4534.59 2869.92 4591.01 2789.24 4619.3C2661.48 4664.06 2484.69 4689.12 2348.93 4675.59C2281.7 4613.46 2207.64 4424.61 2186.82 4334.78C2125.87 4071.75 2184.22 3794.1 2142.65 3528.07C2116.89 3363.18 2063.07 3224.02 1984.42 3078.1C1886.89 2918.16 1770.67 2785.81 1607.78 2689.69C1523.57 2640 1420.62 2585.89 1321.49 2579.16C1253.06 2574.26 1185.61 2597.66 1134.91 2643.88C980.115 2782.43 1004.59 3075.53 1005.62 3263.16C1006.17 3363.39 1001.07 3474.31 1016.13 3572.83C1052.63 3811.59 1180.69 4044.86 1368.9 4197.47C1392.5 4216.68 1438.83 4242.86 1456.9 4264.41C1442.88 4256.85 1428.2 4248.79 1414.72 4240.36C1292.43 4163.71 1156.16 4102.33 1047.81 4006.12C854.195 3834.33 736.993 3592.51 722.123 3334.13C717.881 3261.69 719.049 3184.54 719.008 3111.68L719.13 2786.94L719.408 2522.44C719.468 2477.87 719.508 2433.43 720.139 2388.85C723.541 2148.75 813.946 1924.4 973.814 1745.25C1021.94 1691.34 1076.17 1643.21 1135.42 1601.84C1195.79 1559.62 1267.62 1519.93 1331.89 1483.05L1594.32 1332.09L1835.85 1192.25C1909.57 1149.44 1971.97 1110.28 2051.61 1077.43C2154.56 1034.24 2263.98 1008.44 2375.38 1001.1ZM2608.9 3758.3C2615.47 3787.79 2619.26 3805.9 2637.26 3830.55C2680.98 3890.4 2760.85 3916.67 2832.61 3899.92C2883.44 3888.09 2942.49 3843.51 2970.79 3798.85C3015.97 3723.13 3000.09 3613.03 2999.7 3528.63C2999.05 3387.76 2998.89 3248.04 2998.7 3107.29C2998.57 3010.73 2994.7 2909.78 3000.98 2813.94C3006.79 2757.66 3013.08 2698.52 3036.59 2646.55C3077.09 2556.26 3165.32 2494.44 3259.38 2470.86C3318.49 2456.04 3411.11 2453.36 3464.25 2487.35C3578.81 2560.58 3555.53 2763.11 3555.19 2880.78L3555.1 3190.57C3554.97 3237.23 3550.16 3318.6 3561.35 3359.4C3604.92 3518.13 3795.95 3446.7 3852.03 3337.28C3893.02 3257.35 3883.46 3168.98 3883.43 3087.02L3883.27 2850.64L3883.21 2515.83C3883.21 2408.17 3886.52 2296 3871.99 2189.39C3845.75 1996.36 3706.58 1828.87 3538.91 1737.13C3460 1693.95 3380.41 1652.77 3300.71 1611.13L2948.9 1425.82L2775.67 1333.13C2666.56 1273.68 2594.08 1226.39 2462.15 1238.89C2418.03 1248.3 2348.74 1281.01 2325.38 1319.98C2253.46 1439.99 2445.28 1509.79 2516.6 1548.2L2842.89 1723.91C2977.85 1795.38 3207.56 1880.27 3103.77 2079.18C3036.19 2208.71 2780.04 2238.59 2653.1 2195.7C2557.3 2163.33 2430.98 2086.45 2340.5 2036.17L1929.17 1807.69C1842.95 1758.79 1769.81 1704.31 1671.25 1682.94C1544.01 1655.34 1387.44 1747.51 1419.82 1890.31C1442.22 1989.06 1617.34 2059.3 1699.68 2104.27L2058.43 2301.81C2235.04 2399.59 2386.15 2459.28 2501.77 2631.66C2540.16 2688.1 2568.53 2750.75 2585.62 2816.84C2609.5 2909.15 2606.12 3014.03 2606.02 3109.06L2605.59 3526.1C2605.48 3605.06 2599.47 3680.65 2608.9 3758.3Z" fill="url(#paint0_linear_128_159)"/>
<path d="M1420.4 2955.21C1480.44 2952.95 1579.77 2999.54 1627.52 3034.37C1679.68 3072.43 1721.79 3115.6 1758.66 3168.42C1804.45 3234.7 1836.88 3309.23 1854.13 3387.91C1871.38 3468.62 1871.57 3566.86 1871.19 3649.16C1870.42 3817.43 1857.49 3995.62 1897.47 4160.33C1925.82 4274.84 1973.74 4383.57 2039.12 4481.74C2052.96 4502.45 2128.04 4593.03 2129.19 4604.9C2129.73 4610.49 2127.94 4610.84 2124.72 4615.02C2099.66 4622.55 2065.84 4605.09 2042.54 4594.81C2038.87 4593.38 2035.25 4591.84 2031.66 4590.22C1981.92 4567.45 1934.62 4536.9 1886.39 4510.82C1828.19 4479.33 1772.27 4448.51 1717.78 4410.65C1551.81 4295.7 1425.29 4132.47 1355.41 3943.09C1284.19 3749.55 1292.66 3576.85 1293.37 3373.45C1293.63 3298.58 1288.91 3218.89 1294.82 3144.49C1302.21 3051.4 1329.53 2988.66 1420.4 2955.21Z" fill="url(#paint1_linear_128_159)"/>
<path d="M1783.95 5626.33C1799.73 5691.96 1863.29 5698.27 1920.11 5693.64C1975.64 5689.15 2021.31 5634.86 1954.01 5603.25C1938.25 5595.82 1916.09 5595.69 1899.07 5591.44C1817.24 5571.51 1699.31 5556.77 1677.96 5458.13C1657.6 5364.08 1721.32 5295.77 1810.5 5279.09C1884.07 5265.35 1976.59 5268.22 2041.71 5310.26C2086.56 5339.22 2101.34 5372.36 2111.89 5422.4H1978.54C1930.84 5296.8 1659.65 5421.52 1905.12 5465.81C1969.3 5477.4 2029.97 5488.87 2077.53 5536.12C2158.97 5620.87 2113.72 5752.59 2000.47 5779.07C1874.76 5808.47 1696.82 5798 1655.29 5649.91C1654.76 5707.2 1654.44 5726.91 1670.45 5782.07L1520.28 5782.1C1516.02 5753.52 1512.76 5732.1 1511.51 5703.08L1509.17 5706.89C1403.6 5877.18 1091.2 5776.86 1209.04 5571.08C1256.71 5487.83 1421.05 5483.34 1507.55 5467.91C1507.42 5457.41 1507.64 5436.36 1504.87 5426.96C1486.84 5365.67 1402.4 5363.64 1359.65 5398.19C1349.15 5406.65 1344.52 5417.06 1338.68 5428.67L1199.14 5428.52C1218.45 5324.1 1299.68 5282.62 1398.41 5273.87C1408.22 5271.62 1427.41 5271.94 1437.94 5272.09C1686.92 5276.12 1656.08 5443.61 1655.05 5625.99C1697.25 5627.14 1741.59 5626.39 1783.95 5626.33ZM1354.04 5674.97C1383.39 5687.43 1416.48 5687.77 1446.07 5675.87C1497.93 5654.63 1515.21 5611.03 1506.46 5557.15L1503.66 5554.71C1462.97 5560.96 1418.52 5564.61 1379.41 5576.11C1332.32 5589.94 1314.01 5640.33 1354.04 5674.97Z" fill="#7FC270"/>
<path d="M3839.54 5075.4H3989.05L3988.99 5355.99C4026.13 5298.36 4060.72 5280.55 4129.54 5273.21C4376.74 5246.88 4442.68 5567.36 4307.6 5726.37C4228.47 5814.93 4034.94 5823.61 3985.65 5700.01L3986.49 5782.13L3839.79 5782L3839.54 5075.4ZM4129.75 5671.59C4262.8 5635.32 4260.8 5375.23 4080.58 5391.69C3932.54 5427.08 3961.81 5706.6 4129.75 5671.59Z" fill="#7FC270"/>
<path d="M3099.39 5075.34L3252.14 5075.41C3252.14 5136.6 3256.66 5762.61 3249.39 5780.7L3240.33 5781.95L3099.58 5782.01L3099.61 5472.19L2795.78 5472.47C2791.31 5562.43 2795.28 5689.46 2795.69 5782.14C2745.16 5781.54 2693.46 5782.04 2642.84 5782.01L2642.77 5075.81C2689.84 5074.16 2746.92 5075.47 2794.67 5075.37C2800.07 5149.59 2794.62 5275.16 2795.85 5355.49C2845.64 5354.43 2899.83 5356.68 2950.2 5356.4C2998.9 5356.12 3051.28 5354.74 3099.53 5356.12L3099.39 5075.34Z" fill="#7FC270"/>
<path d="M840.157 5067.65C943.854 5047.41 1089.41 5108.1 1147.23 5195.47C1180.24 5245.35 1193.41 5280.3 1202.66 5338.62L1054.28 5338.49C1025.18 5172.29 825.331 5133.84 725.924 5254.85C612.867 5392.47 683.294 5707.26 906.126 5670.24C963.36 5660.72 994.562 5636.79 1029.02 5590.88C1043.16 5562.42 1047.25 5550.58 1054.87 5519.66C1105.04 5520.41 1155.21 5520.38 1205.38 5519.56C1140.54 5908.91 565.433 5868.43 524.756 5483.3C501.373 5261.9 613.62 5093.2 840.157 5067.65Z" fill="#7FC270"/>
<path d="M2348.54 5273.84C2430.01 5263.38 2521.68 5289.05 2575.76 5353.49C2632.85 5421.49 2636.05 5492.18 2629.78 5576.36C2507.14 5574.73 2381.23 5576.17 2258.33 5576.14C2258.91 5580.2 2259.56 5584.26 2260.29 5588.29C2280.29 5698.71 2424.92 5722.1 2482.64 5635.77L2582.74 5635.89C2595.75 5635.42 2602.69 5635.36 2615.92 5636.45C2620.47 5662.04 2604.45 5676.18 2591.14 5695.83C2509.03 5817.03 2311.61 5818.27 2202.88 5736.59C2093.24 5654.23 2077.73 5472.03 2162.38 5366.61C2210.46 5306.86 2274.3 5281.59 2348.54 5273.84ZM2258.96 5478.96L2400.77 5478.78L2485.07 5478.75C2468.55 5395.72 2430.55 5370.98 2346.28 5379.86C2290.45 5400.72 2276.14 5422.55 2258.96 5478.96Z" fill="#7FC270"/>
<path d="M3634.14 5281.34C3683.59 5281.77 3733.04 5281.71 3782.49 5281.15L3782.84 5491.96C3780.62 5584.19 3782.84 5689.08 3782.9 5782.1L3636.73 5782.04L3636.64 5692.77C3571.28 5793.35 3440.08 5832.58 3341.17 5746.52C3282.32 5695.33 3293.31 5580.82 3293.44 5506.54L3293.88 5281.37C3343.08 5281.68 3392.31 5281.65 3441.51 5281.34C3443.17 5390.85 3437.64 5501.7 3444.17 5610.74C3448.01 5675.06 3522.46 5686.99 3569.41 5662.81C3647.26 5622.74 3635.26 5528.75 3634.95 5456.47L3634.14 5281.34Z" fill="#7FC270"/>
</g>
<defs>
<linearGradient id="paint0_linear_128_159" x1="2445" y1="999" x2="1385.5" y2="5006" gradientUnits="userSpaceOnUse">
<stop offset="0.220873" stop-color="#2A60A8"/>
<stop offset="0.903842" stop-color="#86CB6A"/>
</linearGradient>
<linearGradient id="paint1_linear_128_159" x1="2129" y1="4617" x2="2129" y2="2955" gradientUnits="userSpaceOnUse">
<stop stop-color="#86CB6A"/>
<stop offset="1" stop-color="#285FAC"/>
</linearGradient>
<clipPath id="clip0_128_159">
<rect width="4889" height="6397" fill="white"/>
</clipPath>
</defs>
</svg>
