<svg xmlns="http://www.w3.org/2000/svg" viewBox="0 0 96 96" role="img" aria-labelledby="title desc">
  <title id="title">Maestro hands mark</title>
  <desc id="desc">Two stylized hands forming the Maestro assistant mark.</desc>
  <defs>
    <linearGradient id="maestro-bg" x1="16" y1="10" x2="82" y2="88" gradientUnits="userSpaceOnUse">
      <stop offset="0" stop-color="#1C2447"/>
      <stop offset="0.58" stop-color="#1A6670"/>
      <stop offset="1" stop-color="#38BDF8"/>
    </linearGradient>
    <linearGradient id="maestro-hand-left" x1="19" y1="35" x2="50" y2="73" gradientUnits="userSpaceOnUse">
      <stop offset="0" stop-color="#E6FBFF"/>
      <stop offset="1" stop-color="#A9E8F5"/>
    </linearGradient>
    <linearGradient id="maestro-hand-right" x1="76" y1="35" x2="45" y2="73" gradientUnits="userSpaceOnUse">
      <stop offset="0" stop-color="#F5FFF1"/>
      <stop offset="1" stop-color="#B9F5C8"/>
    </linearGradient>
    <filter id="maestro-shadow" x="-20%" y="-20%" width="140%" height="140%">
      <feDropShadow dx="0" dy="4" stdDeviation="5" flood-color="#08111F" flood-opacity="0.22"/>
    </filter>
  </defs>
  <rect width="96" height="96" rx="30" fill="url(#maestro-bg)"/>
  <path d="M27.7 58.2c-3.9-5.1-6.5-9.6-7.8-13.3-.9-2.7-.3-5 1.9-6.1 2.1-1.1 4.1-.1 5.9 2.8l5.9 9.4 1.9-1.2-8-14.7c-1.5-2.8-.7-5.2 1.5-6.3 2.4-1.1 4.6.1 6.1 3l7.1 13.2 2.1-.9-5.8-14.6c-1.2-3 .1-5.3 2.5-6.1 2.5-.8 4.6.8 5.7 3.8l5.5 15.1 2.3-.3-1.7-11.6c-.4-3.1 1.3-5 3.6-5.2 2.5-.2 4.1 1.7 4.6 4.9l2.4 17.3c.7 5.3-.7 10.2-4.1 14.4l-8.1 9.9c-4.2 5.1-11.9 5.4-16.4.6l-7.1-7.7Z" fill="url(#maestro-hand-left)" filter="url(#maestro-shadow)" opacity="0.98"/>
  <path d="M68.3 58.2c3.9-5.1 6.5-9.6 7.8-13.3.9-2.7.3-5-1.9-6.1-2.1-1.1-4.1-.1-5.9 2.8L62.4 51l-1.9-1.2 8-14.7c1.5-2.8.7-5.2-1.5-6.3-2.4-1.1-4.6.1-6.1 3l-7.1 13.2-2.1-.9 5.8-14.6c1.2-3-.1-5.3-2.5-6.1-2.5-.8-4.6.8-5.7 3.8l-5.5 15.1-2.3-.3 1.7-11.6c.4-3.1-1.3-5-3.6-5.2-2.5-.2-4.1 1.7-4.6 4.9l-2.4 17.3c-.7 5.3.7 10.2 4.1 14.4l8.1 9.9c4.2 5.1 11.9 5.4 16.4.6l7.1-7.7Z" fill="url(#maestro-hand-right)" filter="url(#maestro-shadow)" opacity="0.96"/>
  <path d="M35.2 70.7c8.5 4.3 17.1 4.3 25.6 0" fill="none" stroke="#FFFFFF" stroke-width="3.2" stroke-linecap="round" opacity="0.82"/>
  <circle cx="48" cy="48" r="34" fill="none" stroke="#FFFFFF" stroke-opacity="0.18" stroke-width="1.5"/>
</svg>
