<svg width="2766" height="2944" viewBox="0 0 2766 2944" fill="none" xmlns="http://www.w3.org/2000/svg">
<path d="M1330.07 1.85001C1424.28 -5.00876 1518.86 7.24812 1608.15 37.8806C1697.68 69.0882 1765.76 112.043 1847.61 159.061L2073.95 288.542L2304.62 420.216C2379.34 462.844 2449.6 499.204 2515.42 555.344C2659.99 676.444 2749.05 851.114 2762.09 1039.19C2769.61 1139.92 2763.97 1313.3 2764.01 1421.09L2764.08 1711.48C2764.2 1814.22 2769.49 1913.57 2746.21 2014.2C2720.82 2123.66 2669.38 2225.38 2596.2 2310.69C2555.62 2357.17 2509.48 2398.48 2458.81 2433.68C2414.43 2464.73 2343.51 2503.45 2295.03 2530.94L2062.36 2663.63L1827.74 2797.81C1772.7 2829.25 1716.09 2864.33 1657.9 2888.6C1586.6 2919.08 1510.65 2937.25 1433.29 2942.27C1207.48 2955.66 1097.77 2890.13 910.185 2782.63L663.373 2641.47L448.626 2519.25C386.854 2484.05 327.046 2452.23 270.947 2408.1C122.479 2292.99 26.5931 2122.99 4.88752 1936.42C-0.99243 1883.94 0.488246 1822.04 0.476739 1768.71L0.465268 1535.74L0.476739 1221.2C0.469068 1134.09 -3.86515 1033.81 13.7517 949.909C35.8255 840.559 83.9428 738.142 154.03 651.332C196.203 599.832 244.98 554.117 299.104 515.36C344.348 482.934 403.136 451.285 452.074 423.26L703.293 280.238L937.114 146.003C1084.24 61.7962 1157.98 20.2602 1330.07 1.85001ZM1467.04 2550.99C1491.9 2589.22 1523.69 2614.98 1569.3 2624.14C1611.84 2632.65 1656.06 2623.53 1691.77 2598.88C1805.57 2521.82 1779.41 2394.42 1778.26 2275.8L1777.69 1890.71C1777.61 1773.43 1769.44 1644.69 1794.6 1530.24C1826.4 1385.49 1995.43 1280.93 2138.54 1327.46C2262.2 1369.13 2243.29 1570.95 2243.56 1671.79L2243.98 1995.12C2243.98 2038.27 2238.99 2106.07 2251.15 2145.46C2277.88 2231.95 2372.66 2233.55 2434.41 2183.02C2527.73 2106.67 2517.99 2016.86 2517.99 1911.11L2517.76 1677.51L2517.88 1316.84C2517.8 1103.9 2524.74 960.613 2378.22 785.628C2345.58 746.776 2307.8 712.497 2265.99 683.728C2216.02 649.449 2150.47 614.45 2097.11 584.178L1842.89 439.12L1613.6 307.366C1515.03 250.544 1446.14 194.014 1326.66 208.353C1146.68 262.859 1170.65 391.791 1322.4 461.146C1343.77 470.903 1380.01 494.209 1401.68 506.7L1672.4 663.957C1723.68 693.205 1812.59 738.092 1847.38 781.292C1887.15 831.117 1896.47 898.708 1871.66 957.427C1812.05 1098.74 1568.07 1122.59 1447.29 1060.1C1373.11 1021.72 1302.04 977.386 1230.53 934.155L874.599 719.939C778.394 661.706 675.321 572.389 555.321 621.386C511.725 639.182 482 664.225 463.117 708.096C447.046 744.468 446.735 785.862 462.262 822.467C491.696 892.677 602.211 942.318 667.304 981.067L1023.55 1193.29C1084.16 1229.58 1171.03 1277.06 1224.18 1319.37C1277.77 1361.17 1323.52 1412.15 1359.3 1469.91C1398.04 1531.92 1424.7 1600.68 1437.89 1672.59C1451.66 1748.57 1447.79 1863.8 1447.75 1944.48L1447.48 2342.57C1447.52 2414.77 1437.85 2486.35 1467.04 2550.99Z" fill="#008C4D"></path>
</svg>
