<svg width="3584" height="4493" viewBox="0 0 3584 4493" fill="none" xmlns="http://www.w3.org/2000/svg">
<rect width="3584" height="4493" fill="white"></rect>
<path d="M877.095 2992.23C798.597 2945.24 722.314 2899.16 642.809 2853.97C431.582 2733.86 277.973 2507.08 227.215 2271.45C207.149 2178.3 209.554 2066.28 209.155 1970.8L209 1668.84L209.714 1393.37C210.124 1293.72 206.719 1222.08 224.736 1123.22C269.692 889.774 404.553 683.344 600.25 548.411C645.225 517.435 699.64 486.983 747.266 459.428L982.528 323.776L1222.46 185.39C1286.36 148.443 1354.94 104.694 1421.74 76.6322C1601.08 1.30943 1782.3 -20.0362 1972.92 19.4968C2122.58 50.5362 2210.6 100.223 2341.51 175.332L2587.7 317.693L2824.48 453.589C2900.02 497.229 2963.31 532.068 3032.28 585.795C3102.89 640.734 3164.32 706.543 3214.25 780.765C3280.61 877.665 3330.19 987.262 3355.57 1102.37C3378.7 1207.43 3374.51 1311.26 3374.28 1418.15L3374.07 1699.33L3374.1 1970.36C3374.1 2019.72 3374.71 2069.34 3373.52 2118.69C3366.02 2431.38 3178.83 2724.38 2907.65 2876.22C2874.57 2894.73 2841.98 2913.93 2809.23 2932.7L2569.55 3070.6L2346.24 3199C2250.04 3254.49 2159.66 3310.69 2051.08 3338.25C1967.86 3359.38 1882.78 3378 1796.3 3374.18C1769.48 3372.99 1730.75 3377.95 1705.79 3373.17C1652.66 3336.52 1575.8 3141.91 1559.83 3078.89C1491.61 2809.67 1563.56 2529.97 1503.47 2257.9C1440.36 1972.14 1284.9 1710.88 1031.55 1555.53C943.729 1501.79 798.691 1427.39 693.746 1454.59C462.906 1514.42 466.087 1816.18 470.62 2003.78C474.261 2154.4 459.578 2296.19 496.709 2442.59C551.439 2658.34 687.38 2869.84 878.958 2986.08L877.095 2992.23ZM804.048 771.155C830.635 832.58 861.628 846.201 917.915 878.967C945.76 895.31 973.741 911.425 1001.85 927.306L1385.51 1148.67C1602.9 1273.45 1802.42 1371.48 1929.05 1599.52C1966.93 1663.96 1998.94 1730.92 2019.59 1803.49C2065.18 1963.7 2053.84 2121.62 2053.5 2288.77C2053.14 2462.5 2045.04 2704.62 2213.34 2812.75C2271.11 2849.85 2341.69 2850.79 2405.25 2832.05C2627.39 2766.59 2833.41 2594 2948.56 2395.4C3037.37 2242.26 3106.04 2042 3112.2 1865.85C3115.37 1774.55 3111.97 1670.75 3111.33 1578.77C3110.44 1456 3115.91 1341.41 3083.34 1222.22C3024.53 1005.24 2889.8 816.58 2703.64 690.576C2667.79 665.858 2609.24 633.733 2570.72 611.838L2094.98 339.054C2005.31 288.016 1869.65 188.352 1763.71 205.553C1644.71 226.138 1513.28 305.1 1674.76 400.914C1843.28 499.319 2012.32 596.847 2181.86 693.488C2277.54 749.062 2389.23 807.746 2478.57 871.737C2643.41 989.766 2768.7 1179.62 2819.27 1375.75C2831.91 1425.04 2840.35 1475.29 2844.54 1525.99C2851.38 1609.26 2848.26 1703.02 2847.77 1787.42C2845.69 1890.67 2855.05 1993.71 2834.91 2095.53C2801.2 2265.83 2674.17 2437.46 2502.07 2486.03C2315.8 2538.59 2321.02 2312.47 2321.04 2196.08L2321.32 2032.31C2321.47 1953.43 2322.85 1883.37 2313.44 1804.74C2280.16 1526.03 2123.29 1278.91 1884.3 1132.06C1830.57 1099.04 1776.17 1069.04 1721.29 1037.3L1377.79 839.571C1325.47 809.694 1273.37 779.427 1221.5 748.777C1131.71 696.148 1048.08 641.403 937.014 668.277C880.011 682.07 823.14 711.952 804.048 771.155Z" fill="black"></path>
<path d="M804.048 771.155C830.635 832.58 861.628 846.201 917.915 878.967C945.76 895.31 973.741 911.425 1001.85 927.306L1385.51 1148.67C1602.9 1273.45 1802.42 1371.48 1929.05 1599.52C1966.93 1663.96 1998.94 1730.92 2019.59 1803.49C2065.18 1963.7 2053.84 2121.62 2053.5 2288.77C2053.14 2462.5 2045.04 2704.62 2213.34 2812.75C2271.11 2849.85 2341.69 2850.79 2405.25 2832.05C2627.39 2766.59 2833.41 2594 2948.56 2395.4C3037.37 2242.26 3106.04 2042 3112.2 1865.85C3115.37 1774.55 3111.97 1670.75 3111.33 1578.77C3110.44 1456 3115.91 1341.41 3083.34 1222.22C3024.53 1005.24 2889.8 816.58 2703.64 690.576C2667.79 665.858 2609.24 633.733 2570.72 611.838L2094.98 339.054C2005.31 288.016 1869.65 188.352 1763.71 205.553C1644.71 226.138 1513.28 305.1 1674.76 400.914C1843.28 499.319 2012.32 596.847 2181.86 693.488C2277.54 749.062 2389.23 807.746 2478.57 871.737C2643.41 989.766 2768.7 1179.62 2819.27 1375.75C2831.91 1425.04 2840.35 1475.29 2844.54 1525.99C2851.38 1609.26 2848.26 1703.02 2847.77 1787.42C2845.69 1890.67 2855.05 1993.71 2834.91 2095.53C2801.2 2265.83 2674.17 2437.46 2502.07 2486.03C2315.8 2538.59 2321.02 2312.47 2321.04 2196.08L2321.32 2032.31C2321.47 1953.43 2322.85 1883.37 2313.44 1804.74C2280.16 1526.03 2123.29 1278.91 1884.3 1132.06C1830.57 1099.04 1776.17 1069.04 1721.29 1037.3L1377.79 839.571C1325.47 809.694 1273.37 779.427 1221.5 748.777C1131.71 696.148 1048.08 641.403 937.014 668.277C880.011 682.07 823.14 711.952 804.048 771.155Z" fill="black"></path>
<path d="M1488.91 3322.28C1406.23 3301.5 1330.01 3248.1 1255.67 3208.41C1157.23 3155.84 1070.51 3098.88 992.509 3018.01C859.533 2880.13 773.006 2706.22 745.473 2516.26C733.881 2436.28 737.845 2355.27 736.022 2274.73C734.453 2186.46 735.463 2097.21 734.837 2009.19C734.433 1952.54 747.123 1869.97 790.396 1829.58C807.276 1813.56 843.83 1791.72 867.516 1795.53C1090.07 1829.94 1244.97 2050.85 1260.61 2266.77C1273.91 2450.3 1249.44 2639.72 1274.71 2823.68C1298.18 2994.54 1385.99 3177.08 1504.73 3303.11L1507.79 3306.31C1501.81 3318.59 1504.29 3315.54 1488.91 3322.28Z" fill="black"></path>
<path d="M1507.78 3306.31C1522.62 3323.48 1530.64 3331.39 1548.72 3345.4C1529.62 3338.02 1507.55 3330.09 1488.91 3322.28C1504.29 3315.54 1501.81 3318.6 1507.78 3306.31Z" fill="white"></path>
<path d="M878.957 2986.07C896.709 2996.17 924.545 3009.8 936.929 3025.21C916.996 3014.76 895.985 3004.31 877.094 2992.23L878.957 2986.07Z" fill="white"></path>
<path d="M1960.1 2588.41C1987.33 2627.05 2022.16 2653.09 2072.12 2662.35C2118.72 2670.96 2167.17 2661.73 2206.29 2636.82C2330.95 2558.92 2302.3 2430.15 2301.04 2310.26L2300.41 1921.01C2300.32 1802.47 2291.37 1672.34 2318.94 1556.65C2353.77 1410.35 2538.95 1304.66 2695.72 1351.69C2831.19 1393.81 2810.47 1597.81 2810.77 1699.74L2811.23 2026.55C2811.23 2070.16 2805.77 2138.69 2819.09 2178.51C2848.37 2265.93 2952.2 2267.55 3019.85 2216.48C3122.08 2139.31 3111.41 2048.53 3111.41 1941.64L3111.16 1705.51L3111.29 1340.95C3111.2 1125.72 3118.81 980.89 2958.3 804.02C2922.54 764.749 2881.15 730.1 2835.35 701.021C2780.6 666.373 2708.79 630.996 2650.34 600.398L2371.84 453.777L2120.65 320.602C2012.66 263.168 1937.2 206.028 1806.31 220.521C1609.14 275.615 1635.4 405.938 1801.64 476.04C1825.05 485.902 1864.76 509.459 1888.5 522.085L2185.07 681.037C2241.24 710.6 2338.64 755.971 2376.75 799.637C2420.33 849.998 2430.54 918.318 2403.35 977.67C2338.06 1120.51 2070.77 1144.62 1938.46 1081.45C1857.19 1042.66 1779.33 997.844 1701 954.148L1311.08 737.622C1205.68 678.762 1092.77 588.482 961.306 638.007C913.548 655.995 880.983 681.308 860.297 725.652C842.691 762.415 842.351 804.256 859.36 841.256C891.606 912.222 1012.67 962.399 1083.98 1001.57L1474.25 1216.08C1540.64 1252.75 1635.81 1300.75 1694.04 1343.51C1752.75 1385.77 1802.86 1437.29 1842.07 1495.68C1884.51 1558.35 1913.71 1627.86 1928.16 1700.54C1943.25 1777.34 1939 1893.82 1938.96 1975.36L1938.67 2377.74C1938.71 2450.73 1928.12 2523.08 1960.1 2588.41Z" fill="#FEFEFE"></path>
<path d="M1960.1 2588.41C1987.33 2627.05 2022.16 2653.09 2072.12 2662.35C2118.72 2670.96 2167.17 2661.73 2206.29 2636.82C2330.95 2558.92 2302.3 2430.15 2301.04 2310.26L2300.41 1921.01C2300.32 1802.47 2291.37 1672.34 2318.94 1556.65C2353.77 1410.35 2538.95 1304.66 2695.72 1351.69C2831.19 1393.81 2810.47 1597.81 2810.77 1699.74L2811.23 2026.55C2811.23 2070.16 2805.77 2138.69 2819.09 2178.51C2848.37 2265.93 2952.2 2267.55 3019.85 2216.48C3122.08 2139.31 3111.41 2048.53 3111.41 1941.64L3111.16 1705.51L3111.29 1340.95C3111.2 1125.72 3118.81 980.89 2958.3 804.02C2922.54 764.749 2881.15 730.1 2835.35 701.021C2780.6 666.373 2708.79 630.996 2650.34 600.398L2371.84 453.777L2120.65 320.602C2012.66 263.168 1937.2 206.028 1806.31 220.521C1609.14 275.615 1635.4 405.938 1801.64 476.04C1825.05 485.902 1864.76 509.459 1888.5 522.085L2185.07 681.037C2241.24 710.6 2338.64 755.971 2376.75 799.637C2420.33 849.998 2430.54 918.318 2403.35 977.67C2338.06 1120.51 2070.77 1144.62 1938.46 1081.45C1857.19 1042.66 1779.33 997.844 1701 954.148L1311.08 737.622C1205.68 678.762 1092.77 588.482 961.306 638.007C913.548 655.995 880.983 681.308 860.297 725.652C842.691 762.415 842.351 804.256 859.36 841.256C891.606 912.222 1012.67 962.399 1083.98 1001.57L1474.25 1216.08C1540.64 1252.75 1635.81 1300.75 1694.04 1343.51C1752.75 1385.77 1802.86 1437.29 1842.07 1495.68C1884.51 1558.35 1913.71 1627.86 1928.16 1700.54C1943.25 1777.34 1939 1893.82 1938.96 1975.36L1938.67 2377.74C1938.71 2450.73 1928.12 2523.08 1960.1 2588.41Z" fill="white"></path>
<path d="M351.9 4489C305.1 4489 261.9 4480.9 222.3 4464.7C182.7 4447.9 148.2 4424.5 118.8 4394.5C90 4364.5 67.5 4329.1 51.3 4288.3C35.1 4246.9 27 4201.9 27 4153.3C27 4104.7 34.8 4060.3 50.4 4020.1C66.6 3979.9 89.1 3945.1 117.9 3915.7C147.3 3885.7 181.8 3862.9 221.4 3847.3C261 3831.1 304.5 3823 351.9 3823C405.3 3823 453.3 3833.5 495.9 3854.5C539.1 3874.9 574.2 3904 601.2 3941.8C628.8 3979 645.6 4022.8 651.6 4073.2H516.6C508.8 4027 489.9 3992.2 459.9 3968.8C429.9 3944.8 394.2 3932.8 352.8 3932.8C316.2 3932.8 283.8 3941.5 255.6 3958.9C228 3976.3 206.4 4001.5 190.8 4034.5C175.2 4066.9 167.4 4106.2 167.4 4152.4C167.4 4199.2 175.2 4239.7 190.8 4273.9C207 4307.5 229.2 4333.6 257.4 4352.2C285.6 4370.2 318 4379.2 354.6 4379.2C393.6 4379.2 428.1 4367.5 458.1 4344.1C488.1 4320.7 507.6 4285.9 516.6 4239.7H653.4C645.6 4290.1 627.9 4334.2 600.3 4372C572.7 4409.2 537.6 4438 495 4458.4C452.4 4478.8 404.7 4489 351.9 4489ZM945.443 4480C941.843 4466.8 939.143 4452.7 937.343 4437.7C936.143 4422.7 935.543 4405.3 935.543 4385.5H931.943V4168.6C931.943 4150 925.643 4135.6 913.043 4125.4C901.043 4114.6 883.043 4109.2 859.043 4109.2C836.243 4109.2 817.943 4113.1 804.143 4120.9C790.943 4128.7 782.243 4140.1 778.043 4155.1H649.343C655.343 4113.7 676.643 4079.5 713.243 4052.5C749.843 4025.5 799.943 4012 863.543 4012C929.543 4012 979.943 4026.7 1014.74 4056.1C1049.54 4085.5 1066.94 4127.8 1066.94 4183V4385.5C1066.94 4400.5 1067.84 4415.8 1069.64 4431.4C1072.04 4446.4 1075.64 4462.6 1080.44 4480H945.443ZM785.243 4489C739.643 4489 703.343 4477.6 676.343 4454.8C649.343 4431.4 635.843 4400.5 635.843 4362.1C635.843 4319.5 651.743 4285.3 683.543 4259.5C715.943 4233.1 760.943 4216 818.543 4208.2L952.643 4189.3V4267.6L841.043 4284.7C817.043 4288.3 799.343 4294.9 787.943 4304.5C776.543 4314.1 770.843 4327.3 770.843 4344.1C770.843 4359.1 776.243 4370.5 787.043 4378.3C797.843 4386.1 812.243 4390 830.243 4390C858.443 4390 882.443 4382.5 902.243 4367.5C922.043 4351.9 931.943 4333.9 931.943 4313.5L944.543 4385.5C931.343 4419.7 911.243 4445.5 884.243 4462.9C857.243 4480.3 824.243 4489 785.243 4489ZM1289.8 4489C1222.6 4489 1169.2 4475.5 1129.6 4448.5C1090 4421.5 1068.4 4384.3 1064.8 4336.9H1185.4C1188.4 4357.3 1198.6 4372.9 1216 4383.7C1234 4393.9 1258.6 4399 1289.8 4399C1318 4399 1338.4 4395.1 1351 4387.3C1364.2 4378.9 1370.8 4367.2 1370.8 4352.2C1370.8 4340.8 1366.9 4332.1 1359.1 4326.1C1351.9 4319.5 1338.4 4314.1 1318.6 4309.9L1244.8 4294.6C1190.2 4283.2 1150 4266.1 1124.2 4243.3C1098.4 4219.9 1085.5 4189.9 1085.5 4153.3C1085.5 4108.9 1102.6 4074.4 1136.8 4049.8C1171 4024.6 1218.7 4012 1279.9 4012C1340.5 4012 1388.8 4024.3 1424.8 4048.9C1460.8 4072.9 1480.6 4106.5 1484.2 4149.7H1363.6C1361.2 4134.1 1352.8 4122.4 1338.4 4114.6C1324 4106.2 1303.6 4102 1277.2 4102C1253.2 4102 1235.2 4105.6 1223.2 4112.8C1211.8 4119.4 1206.1 4129 1206.1 4141.6C1206.1 4152.4 1210.9 4161.1 1220.5 4167.7C1230.1 4173.7 1246 4179.1 1268.2 4183.9L1351 4201C1397.2 4210.6 1432 4228.6 1455.4 4255C1479.4 4280.8 1491.4 4311.4 1491.4 4346.8C1491.4 4391.8 1473.7 4426.9 1438.3 4452.1C1403.5 4476.7 1354 4489 1289.8 4489ZM1735.73 4489C1684.73 4489 1640.33 4479.1 1602.53 4459.3C1564.73 4438.9 1535.33 4410.7 1514.33 4374.7C1493.93 4338.7 1483.73 4297.3 1483.73 4250.5C1483.73 4203.1 1493.93 4161.7 1514.33 4126.3C1535.33 4090.3 1564.43 4062.4 1601.63 4042.6C1638.83 4022.2 1682.03 4012 1731.23 4012C1778.63 4012 1819.73 4021.6 1854.53 4040.8C1889.33 4060 1916.33 4086.7 1935.53 4120.9C1954.73 4155.1 1964.33 4195.3 1964.33 4241.5C1964.33 4251.1 1964.03 4260.1 1963.43 4268.5C1962.83 4276.3 1961.93 4283.8 1960.73 4291H1562.93V4201.9H1851.83L1828.43 4218.1C1828.43 4180.9 1819.43 4153.6 1801.43 4136.2C1784.03 4118.2 1760.03 4109.2 1729.43 4109.2C1694.03 4109.2 1666.43 4121.2 1646.63 4145.2C1627.43 4169.2 1617.83 4205.2 1617.83 4253.2C1617.83 4300 1627.43 4334.8 1646.63 4357.6C1666.43 4380.4 1695.83 4391.8 1734.83 4391.8C1756.43 4391.8 1775.03 4388.2 1790.63 4381C1806.23 4373.8 1817.93 4362.1 1825.73 4345.9H1952.63C1937.63 4390.3 1911.83 4425.4 1875.23 4451.2C1839.23 4476.4 1792.73 4489 1735.73 4489ZM1973.53 4480V3832H2112.13V4480H1973.53ZM2392.93 4480V3832H2531.53V4480H2392.93ZM2038.33 4089.4H2455.93V4195.6H2038.33V4089.4ZM2724.79 4489C2692.39 4489 2664.49 4482.1 2641.09 4468.3C2618.29 4453.9 2600.89 4435 2588.89 4411.6C2576.89 4387.6 2570.89 4360.9 2570.89 4331.5V4021H2705.89V4305.4C2705.89 4330.6 2712.19 4349.5 2724.79 4362.1C2737.39 4374.7 2755.09 4381 2777.89 4381C2798.29 4381 2816.29 4376.2 2831.89 4366.6C2847.49 4357 2859.79 4343.8 2868.79 4327C2878.39 4309.6 2883.19 4289.8 2883.19 4267.6L2894.89 4378.3C2879.89 4411.3 2857.99 4438 2829.19 4458.4C2800.39 4478.8 2765.59 4489 2724.79 4489ZM2885.89 4480V4372H2883.19V4021H3018.19V4480H2885.89ZM3352.38 4489C3308.58 4489 3272.88 4478.8 3245.28 4458.4C3218.28 4438 3202.38 4410.1 3197.58 4374.7L3204.78 4373.8V4480H3072.48V3832H3207.48V4122.7L3199.38 4120.9C3205.98 4087.3 3223.38 4060.9 3251.58 4041.7C3280.38 4021.9 3316.38 4012 3359.58 4012C3400.98 4012 3436.68 4021.9 3466.68 4041.7C3497.28 4060.9 3520.68 4088.2 3536.88 4123.6C3553.68 4159 3562.08 4200.7 3562.08 4248.7C3562.08 4297.3 3553.38 4339.6 3535.98 4375.6C3518.58 4411.6 3494.28 4439.5 3463.08 4459.3C3431.88 4479.1 3394.98 4489 3352.38 4489ZM3314.58 4381C3346.38 4381 3372.18 4369.6 3391.98 4346.8C3411.78 4324 3421.68 4291.6 3421.68 4249.6C3421.68 4207.6 3411.48 4175.5 3391.08 4153.3C3371.28 4131.1 3345.18 4120 3312.78 4120C3281.58 4120 3255.78 4131.4 3235.38 4154.2C3215.58 4176.4 3205.68 4208.5 3205.68 4250.5C3205.68 4292.5 3215.58 4324.9 3235.38 4347.7C3255.78 4369.9 3282.18 4381 3314.58 4381Z" fill="black"></path>
</svg>