<svg width="4485" height="5868" viewBox="0 0 4485 5868" fill="none" xmlns="http://www.w3.org/2000/svg">
<path d="M1328.09 3908.23C1249.6 3861.24 1173.31 3815.16 1093.81 3769.97C882.582 3649.86 728.973 3423.08 678.215 3187.45C658.149 3094.3 660.554 2982.28 660.155 2886.8L660 2584.84L660.714 2309.37C661.124 2209.72 657.719 2138.08 675.736 2039.22C720.692 1805.77 855.553 1599.34 1051.25 1464.41C1096.22 1433.44 1150.64 1402.98 1198.27 1375.43L1433.53 1239.78L1673.46 1101.39C1737.36 1064.44 1805.94 1020.69 1872.74 992.632C2052.08 917.309 2233.3 895.964 2423.92 935.497C2573.58 966.536 2661.6 1016.22 2792.51 1091.33L3038.7 1233.69L3275.48 1369.59C3351.02 1413.23 3414.31 1448.07 3483.28 1501.8C3553.89 1556.73 3615.32 1622.54 3665.25 1696.76C3731.61 1793.66 3781.19 1903.26 3806.57 2018.37C3829.7 2123.43 3825.51 2227.26 3825.28 2334.15L3825.08 2615.33L3825.1 2886.36C3825.1 2935.72 3825.71 2985.34 3824.52 3034.69C3817.02 3347.38 3629.83 3640.38 3358.65 3792.22C3325.57 3810.73 3292.98 3829.93 3260.23 3848.7L3020.55 3986.6L2797.24 4115C2701.04 4170.49 2610.66 4226.69 2502.08 4254.25C2418.86 4275.38 2333.78 4294 2247.3 4290.18C2220.48 4288.99 2181.75 4293.95 2156.79 4289.17C2103.66 4252.52 2026.8 4057.91 2010.83 3994.89C1942.61 3725.67 2014.56 3445.97 1954.47 3173.9C1891.36 2888.14 1735.9 2626.88 1482.55 2471.53C1394.73 2417.79 1249.69 2343.39 1144.75 2370.59C913.906 2430.42 917.087 2732.18 921.62 2919.78C925.261 3070.4 910.578 3212.19 947.709 3358.59C1002.44 3574.34 1138.38 3785.84 1329.96 3902.08L1328.09 3908.23ZM1255.05 1687.15C1281.64 1748.58 1312.63 1762.2 1368.91 1794.97C1396.76 1811.31 1424.74 1827.43 1452.85 1843.31L1836.51 2064.67C2053.9 2189.45 2253.42 2287.48 2380.05 2515.52C2417.93 2579.96 2449.94 2646.92 2470.59 2719.49C2516.18 2879.7 2504.84 3037.62 2504.5 3204.77C2504.14 3378.5 2496.04 3620.62 2664.34 3728.75C2722.11 3765.85 2792.69 3766.79 2856.25 3748.05C3078.39 3682.59 3284.41 3510 3399.56 3311.4C3488.37 3158.26 3557.04 2958 3563.2 2781.85C3566.37 2690.55 3562.97 2586.75 3562.33 2494.77C3561.44 2372 3566.91 2257.41 3534.34 2138.22C3475.53 1921.24 3340.8 1732.58 3154.64 1606.58C3118.79 1581.86 3060.24 1549.73 3021.72 1527.84L2545.98 1255.05C2456.31 1204.02 2320.65 1104.35 2214.71 1121.55C2095.71 1142.14 1964.28 1221.1 2125.76 1316.91C2294.28 1415.32 2463.32 1512.85 2632.86 1609.49C2728.54 1665.06 2840.23 1723.75 2929.57 1787.74C3094.41 1905.77 3219.7 2095.62 3270.27 2291.75C3282.91 2341.04 3291.35 2391.29 3295.55 2441.99C3302.38 2525.26 3299.26 2619.02 3298.77 2703.42C3296.69 2806.67 3306.05 2909.71 3285.91 3011.53C3252.2 3181.83 3125.17 3353.46 2953.07 3402.03C2766.8 3454.59 2772.02 3228.47 2772.04 3112.08L2772.32 2948.31C2772.47 2869.43 2773.85 2799.37 2764.44 2720.74C2731.16 2442.03 2574.29 2194.91 2335.3 2048.06C2281.57 2015.04 2227.17 1985.04 2172.29 1953.3L1828.79 1755.57C1776.47 1725.69 1724.37 1695.43 1672.5 1664.78C1582.71 1612.15 1499.08 1557.4 1388.01 1584.28C1331.01 1598.07 1274.14 1627.95 1255.05 1687.15Z" fill="#1E4890"/>
<path d="M1255.05 1687.15C1281.64 1748.58 1312.63 1762.2 1368.91 1794.97C1396.76 1811.31 1424.74 1827.43 1452.85 1843.31L1836.51 2064.67C2053.9 2189.45 2253.42 2287.48 2380.05 2515.52C2417.93 2579.96 2449.94 2646.92 2470.59 2719.49C2516.18 2879.7 2504.84 3037.62 2504.5 3204.77C2504.14 3378.5 2496.04 3620.62 2664.34 3728.75C2722.11 3765.85 2792.69 3766.79 2856.25 3748.05C3078.39 3682.59 3284.41 3510 3399.56 3311.4C3488.37 3158.26 3557.04 2958 3563.2 2781.85C3566.37 2690.55 3562.97 2586.75 3562.33 2494.77C3561.44 2372 3566.91 2257.41 3534.34 2138.22C3475.53 1921.24 3340.8 1732.58 3154.64 1606.58C3118.79 1581.86 3060.24 1549.73 3021.72 1527.84L2545.98 1255.05C2456.31 1204.02 2320.65 1104.35 2214.71 1121.55C2095.71 1142.14 1964.28 1221.1 2125.76 1316.91C2294.28 1415.32 2463.32 1512.85 2632.86 1609.49C2728.54 1665.06 2840.23 1723.75 2929.57 1787.74C3094.41 1905.77 3219.7 2095.62 3270.27 2291.75C3282.91 2341.04 3291.35 2391.29 3295.55 2441.99C3302.38 2525.26 3299.26 2619.02 3298.77 2703.42C3296.69 2806.67 3306.05 2909.71 3285.91 3011.53C3252.2 3181.83 3125.17 3353.46 2953.07 3402.03C2766.8 3454.59 2772.02 3228.47 2772.04 3112.08L2772.32 2948.31C2772.47 2869.43 2773.85 2799.37 2764.44 2720.74C2731.16 2442.03 2574.29 2194.91 2335.3 2048.06C2281.57 2015.04 2227.17 1985.04 2172.29 1953.3L1828.79 1755.57C1776.47 1725.69 1724.37 1695.43 1672.5 1664.78C1582.71 1612.15 1499.08 1557.4 1388.01 1584.28C1331.01 1598.07 1274.14 1627.95 1255.05 1687.15Z" fill="#1E4890"/>
<path d="M1939.91 4238.28C1857.23 4217.5 1781.01 4164.1 1706.67 4124.41C1608.23 4071.84 1521.51 4014.88 1443.51 3934.01C1310.53 3796.13 1224.01 3622.22 1196.47 3432.26C1184.88 3352.28 1188.85 3271.27 1187.02 3190.73C1185.45 3102.46 1186.46 3013.21 1185.84 2925.19C1185.43 2868.54 1198.12 2785.97 1241.4 2745.58C1258.28 2729.56 1294.83 2707.72 1318.52 2711.53C1541.07 2745.94 1695.97 2966.85 1711.61 3182.77C1724.91 3366.3 1700.44 3555.72 1725.71 3739.68C1749.18 3910.54 1836.99 4093.08 1955.73 4219.11L1958.79 4222.31C1952.81 4234.59 1955.29 4231.54 1939.91 4238.28Z" fill="#001F3E"/>
<path d="M1958.78 4222.31C1973.62 4239.48 1981.64 4247.39 1999.72 4261.4C1980.62 4254.02 1958.55 4246.09 1939.91 4238.28C1955.29 4231.54 1952.81 4234.6 1958.78 4222.31Z" fill="#001F3E"/>
<path d="M1329.96 3902.08C1347.71 3912.17 1375.54 3925.8 1387.93 3941.21C1368 3930.76 1346.98 3920.31 1328.09 3908.23L1329.96 3902.08Z" fill="#001F3E"/>
<path d="M2411.1 3504.41C2438.33 3543.05 2473.16 3569.09 2523.12 3578.35C2569.72 3586.96 2618.17 3577.73 2657.29 3552.82C2781.95 3474.92 2753.3 3346.15 2752.04 3226.26L2751.41 2837.01C2751.32 2718.47 2742.37 2588.34 2769.94 2472.65C2804.77 2326.35 2989.95 2220.66 3146.72 2267.69C3282.19 2309.81 3261.47 2513.81 3261.77 2615.74L3262.23 2942.55C3262.23 2986.16 3256.77 3054.69 3270.09 3094.51C3299.37 3181.93 3403.2 3183.55 3470.85 3132.48C3573.08 3055.31 3562.41 2964.53 3562.41 2857.64L3562.16 2621.51L3562.29 2256.95C3562.2 2041.72 3569.81 1896.89 3409.3 1720.02C3373.54 1680.75 3332.15 1646.1 3286.35 1617.02C3231.6 1582.37 3159.79 1547 3101.34 1516.4L2822.84 1369.78L2571.65 1236.6C2463.66 1179.17 2388.2 1122.03 2257.31 1136.52C2060.14 1191.61 2086.4 1321.94 2252.64 1392.04C2276.05 1401.9 2315.76 1425.46 2339.5 1438.08L2636.07 1597.04C2692.25 1626.6 2789.64 1671.97 2827.75 1715.64C2871.33 1766 2881.54 1834.32 2854.35 1893.67C2789.06 2036.51 2521.77 2060.62 2389.46 1997.45C2308.19 1958.66 2230.33 1913.84 2152 1870.15L1762.08 1653.62C1656.68 1594.76 1543.77 1504.48 1412.31 1554.01C1364.55 1572 1331.98 1597.31 1311.3 1641.65C1293.69 1678.42 1293.35 1720.26 1310.36 1757.26C1342.61 1828.22 1463.67 1878.4 1534.98 1917.57L1925.25 2132.08C1991.64 2168.75 2086.81 2216.75 2145.04 2259.51C2203.75 2301.77 2253.86 2353.29 2293.07 2411.68C2335.51 2474.36 2364.71 2543.86 2379.16 2616.54C2394.25 2693.34 2390 2809.82 2389.96 2891.36L2389.67 3293.74C2389.71 3366.73 2379.12 3439.08 2411.1 3504.41Z" fill="#001F3E"/>
<path d="M2411.1 3504.41C2438.33 3543.05 2473.16 3569.09 2523.12 3578.35C2569.72 3586.96 2618.17 3577.73 2657.29 3552.82C2781.95 3474.92 2753.3 3346.15 2752.04 3226.26L2751.41 2837.01C2751.32 2718.47 2742.37 2588.34 2769.94 2472.65C2804.77 2326.35 2989.95 2220.66 3146.72 2267.69C3282.19 2309.81 3261.47 2513.81 3261.77 2615.74L3262.23 2942.55C3262.23 2986.16 3256.77 3054.69 3270.09 3094.51C3299.37 3181.93 3403.2 3183.55 3470.85 3132.48C3573.08 3055.31 3562.41 2964.53 3562.41 2857.64L3562.16 2621.51L3562.29 2256.95C3562.2 2041.72 3569.81 1896.89 3409.3 1720.02C3373.54 1680.75 3332.15 1646.1 3286.35 1617.02C3231.6 1582.37 3159.79 1547 3101.34 1516.4L2822.84 1369.78L2571.65 1236.6C2463.66 1179.17 2388.2 1122.03 2257.31 1136.52C2060.14 1191.61 2086.4 1321.94 2252.64 1392.04C2276.05 1401.9 2315.76 1425.46 2339.5 1438.08L2636.07 1597.04C2692.25 1626.6 2789.64 1671.97 2827.75 1715.64C2871.33 1766 2881.54 1834.32 2854.35 1893.67C2789.06 2036.51 2521.77 2060.62 2389.46 1997.45C2308.19 1958.66 2230.33 1913.84 2152 1870.15L1762.08 1653.62C1656.68 1594.76 1543.77 1504.48 1412.31 1554.01C1364.55 1572 1331.98 1597.31 1311.3 1641.65C1293.69 1678.42 1293.35 1720.26 1310.36 1757.26C1342.61 1828.22 1463.67 1878.4 1534.98 1917.57L1925.25 2132.08C1991.64 2168.75 2086.81 2216.75 2145.04 2259.51C2203.75 2301.77 2253.86 2353.29 2293.07 2411.68C2335.51 2474.36 2364.71 2543.86 2379.16 2616.54C2394.25 2693.34 2390 2809.82 2389.96 2891.36L2389.67 3293.74C2389.71 3366.73 2379.12 3439.08 2411.1 3504.41Z" fill="#001F3E"/>
<path d="M802.9 5243C756.1 5243 712.9 5234.9 673.3 5218.7C633.7 5201.9 599.2 5178.5 569.8 5148.5C541 5118.5 518.5 5083.1 502.3 5042.3C486.1 5000.9 478 4955.9 478 4907.3C478 4858.7 485.8 4814.3 501.4 4774.1C517.6 4733.9 540.1 4699.1 568.9 4669.7C598.3 4639.7 632.8 4616.9 672.4 4601.3C712 4585.1 755.5 4577 802.9 4577C856.3 4577 904.3 4587.5 946.9 4608.5C990.1 4628.9 1025.2 4658 1052.2 4695.8C1079.8 4733 1096.6 4776.8 1102.6 4827.2H967.6C959.8 4781 940.9 4746.2 910.9 4722.8C880.9 4698.8 845.2 4686.8 803.8 4686.8C767.2 4686.8 734.8 4695.5 706.6 4712.9C679 4730.3 657.4 4755.5 641.8 4788.5C626.2 4820.9 618.4 4860.2 618.4 4906.4C618.4 4953.2 626.2 4993.7 641.8 5027.9C658 5061.5 680.2 5087.6 708.4 5106.2C736.6 5124.2 769 5133.2 805.6 5133.2C844.6 5133.2 879.1 5121.5 909.1 5098.1C939.1 5074.7 958.6 5039.9 967.6 4993.7H1104.4C1096.6 5044.1 1078.9 5088.2 1051.3 5126C1023.7 5163.2 988.6 5192 946 5212.4C903.4 5232.8 855.7 5243 802.9 5243ZM1396.44 5234C1392.84 5220.8 1390.14 5206.7 1388.34 5191.7C1387.14 5176.7 1386.54 5159.3 1386.54 5139.5H1382.94V4922.6C1382.94 4904 1376.64 4889.6 1364.04 4879.4C1352.04 4868.6 1334.04 4863.2 1310.04 4863.2C1287.24 4863.2 1268.94 4867.1 1255.14 4874.9C1241.94 4882.7 1233.24 4894.1 1229.04 4909.1H1100.34C1106.34 4867.7 1127.64 4833.5 1164.24 4806.5C1200.84 4779.5 1250.94 4766 1314.54 4766C1380.54 4766 1430.94 4780.7 1465.74 4810.1C1500.54 4839.5 1517.94 4881.8 1517.94 4937V5139.5C1517.94 5154.5 1518.84 5169.8 1520.64 5185.4C1523.04 5200.4 1526.64 5216.6 1531.44 5234H1396.44ZM1236.24 5243C1190.64 5243 1154.34 5231.6 1127.34 5208.8C1100.34 5185.4 1086.84 5154.5 1086.84 5116.1C1086.84 5073.5 1102.74 5039.3 1134.54 5013.5C1166.94 4987.1 1211.94 4970 1269.54 4962.2L1403.64 4943.3V5021.6L1292.04 5038.7C1268.04 5042.3 1250.34 5048.9 1238.94 5058.5C1227.54 5068.1 1221.84 5081.3 1221.84 5098.1C1221.84 5113.1 1227.24 5124.5 1238.04 5132.3C1248.84 5140.1 1263.24 5144 1281.24 5144C1309.44 5144 1333.44 5136.5 1353.24 5121.5C1373.04 5105.9 1382.94 5087.9 1382.94 5067.5L1395.54 5139.5C1382.34 5173.7 1362.24 5199.5 1335.24 5216.9C1308.24 5234.3 1275.24 5243 1236.24 5243ZM1740.8 5243C1673.6 5243 1620.2 5229.5 1580.6 5202.5C1541 5175.5 1519.4 5138.3 1515.8 5090.9H1636.4C1639.4 5111.3 1649.6 5126.9 1667 5137.7C1685 5147.9 1709.6 5153 1740.8 5153C1769 5153 1789.4 5149.1 1802 5141.3C1815.2 5132.9 1821.8 5121.2 1821.8 5106.2C1821.8 5094.8 1817.9 5086.1 1810.1 5080.1C1802.9 5073.5 1789.4 5068.1 1769.6 5063.9L1695.8 5048.6C1641.2 5037.2 1601 5020.1 1575.2 4997.3C1549.4 4973.9 1536.5 4943.9 1536.5 4907.3C1536.5 4862.9 1553.6 4828.4 1587.8 4803.8C1622 4778.6 1669.7 4766 1730.9 4766C1791.5 4766 1839.8 4778.3 1875.8 4802.9C1911.8 4826.9 1931.6 4860.5 1935.2 4903.7H1814.6C1812.2 4888.1 1803.8 4876.4 1789.4 4868.6C1775 4860.2 1754.6 4856 1728.2 4856C1704.2 4856 1686.2 4859.6 1674.2 4866.8C1662.8 4873.4 1657.1 4883 1657.1 4895.6C1657.1 4906.4 1661.9 4915.1 1671.5 4921.7C1681.1 4927.7 1697 4933.1 1719.2 4937.9L1802 4955C1848.2 4964.6 1883 4982.6 1906.4 5009C1930.4 5034.8 1942.4 5065.4 1942.4 5100.8C1942.4 5145.8 1924.7 5180.9 1889.3 5206.1C1854.5 5230.7 1805 5243 1740.8 5243ZM2186.73 5243C2135.73 5243 2091.33 5233.1 2053.53 5213.3C2015.73 5192.9 1986.33 5164.7 1965.33 5128.7C1944.93 5092.7 1934.73 5051.3 1934.73 5004.5C1934.73 4957.1 1944.93 4915.7 1965.33 4880.3C1986.33 4844.3 2015.43 4816.4 2052.63 4796.6C2089.83 4776.2 2133.03 4766 2182.23 4766C2229.63 4766 2270.73 4775.6 2305.53 4794.8C2340.33 4814 2367.33 4840.7 2386.53 4874.9C2405.73 4909.1 2415.33 4949.3 2415.33 4995.5C2415.33 5005.1 2415.03 5014.1 2414.43 5022.5C2413.83 5030.3 2412.93 5037.8 2411.73 5045H2013.93V4955.9H2302.83L2279.43 4972.1C2279.43 4934.9 2270.43 4907.6 2252.43 4890.2C2235.03 4872.2 2211.03 4863.2 2180.43 4863.2C2145.03 4863.2 2117.43 4875.2 2097.63 4899.2C2078.43 4923.2 2068.83 4959.2 2068.83 5007.2C2068.83 5054 2078.43 5088.8 2097.63 5111.6C2117.43 5134.4 2146.83 5145.8 2185.83 5145.8C2207.43 5145.8 2226.03 5142.2 2241.63 5135C2257.23 5127.8 2268.93 5116.1 2276.73 5099.9H2403.63C2388.63 5144.3 2362.83 5179.4 2326.23 5205.2C2290.23 5230.4 2243.73 5243 2186.73 5243Z" fill="#001F3E"/>
<path d="M2424.53 5234V4586H2563.13V5234H2424.53ZM2843.93 5234V4586H2982.53V5234H2843.93ZM2489.33 4843.4H2906.93V4949.6H2489.33V4843.4ZM3175.79 5243C3143.39 5243 3115.49 5236.1 3092.09 5222.3C3069.29 5207.9 3051.89 5189 3039.89 5165.6C3027.89 5141.6 3021.89 5114.9 3021.89 5085.5V4775H3156.89V5059.4C3156.89 5084.6 3163.19 5103.5 3175.79 5116.1C3188.39 5128.7 3206.09 5135 3228.89 5135C3249.29 5135 3267.29 5130.2 3282.89 5120.6C3298.49 5111 3310.79 5097.8 3319.79 5081C3329.39 5063.6 3334.19 5043.8 3334.19 5021.6L3345.89 5132.3C3330.89 5165.3 3308.99 5192 3280.19 5212.4C3251.39 5232.8 3216.59 5243 3175.79 5243ZM3336.89 5234V5126H3334.19V4775H3469.19V5234H3336.89ZM3803.38 5243C3759.58 5243 3723.88 5232.8 3696.28 5212.4C3669.28 5192 3653.38 5164.1 3648.58 5128.7L3655.78 5127.8V5234H3523.48V4586H3658.48V4876.7L3650.38 4874.9C3656.98 4841.3 3674.38 4814.9 3702.58 4795.7C3731.38 4775.9 3767.38 4766 3810.58 4766C3851.98 4766 3887.68 4775.9 3917.68 4795.7C3948.28 4814.9 3971.68 4842.2 3987.88 4877.6C4004.68 4913 4013.08 4954.7 4013.08 5002.7C4013.08 5051.3 4004.38 5093.6 3986.98 5129.6C3969.58 5165.6 3945.28 5193.5 3914.08 5213.3C3882.88 5233.1 3845.98 5243 3803.38 5243ZM3765.58 5135C3797.38 5135 3823.18 5123.6 3842.98 5100.8C3862.78 5078 3872.68 5045.6 3872.68 5003.6C3872.68 4961.6 3862.48 4929.5 3842.08 4907.3C3822.28 4885.1 3796.18 4874 3763.78 4874C3732.58 4874 3706.78 4885.4 3686.38 4908.2C3666.58 4930.4 3656.68 4962.5 3656.68 5004.5C3656.68 5046.5 3666.58 5078.9 3686.38 5101.7C3706.78 5123.9 3733.18 5135 3765.58 5135Z" fill="#1E4890"/>
</svg>
