<svg width="3536" height="666" viewBox="0 0 3536 666" fill="none" xmlns="http://www.w3.org/2000/svg">
<path d="M324.9 666C278.1 666 234.9 657.9 195.3 641.7C155.7 624.9 121.2 601.5 91.8 571.5C63 541.5 40.5 506.1 24.3 465.3C8.1 423.9 1.07288e-06 378.9 1.07288e-06 330.3C1.07288e-06 281.7 7.8 237.3 23.4 197.1C39.6 156.9 62.1 122.1 90.9 92.7C120.3 62.7 154.8 39.9 194.4 24.3C234 8.09999 277.5 -1.71661e-05 324.9 -1.71661e-05C378.3 -1.71661e-05 426.3 10.5 468.9 31.5C512.1 51.9 547.2 81 574.2 118.8C601.8 156 618.6 199.8 624.6 250.2H489.6C481.8 204 462.9 169.2 432.9 145.8C402.9 121.8 367.2 109.8 325.8 109.8C289.2 109.8 256.8 118.5 228.6 135.9C201 153.3 179.4 178.5 163.8 211.5C148.2 243.9 140.4 283.2 140.4 329.4C140.4 376.2 148.2 416.7 163.8 450.9C180 484.5 202.2 510.6 230.4 529.2C258.6 547.2 291 556.2 327.6 556.2C366.6 556.2 401.1 544.5 431.1 521.1C461.1 497.7 480.6 462.9 489.6 416.7H626.4C618.6 467.1 600.9 511.2 573.3 549C545.7 586.2 510.6 615 468 635.4C425.4 655.8 377.7 666 324.9 666ZM918.443 657C914.843 643.8 912.143 629.7 910.343 614.7C909.143 599.7 908.543 582.3 908.543 562.5H904.943V345.6C904.943 327 898.643 312.6 886.043 302.4C874.043 291.6 856.043 286.2 832.043 286.2C809.243 286.2 790.943 290.1 777.143 297.9C763.943 305.7 755.243 317.1 751.043 332.1H622.343C628.343 290.7 649.643 256.5 686.243 229.5C722.843 202.5 772.943 189 836.543 189C902.543 189 952.943 203.7 987.743 233.1C1022.54 262.5 1039.94 304.8 1039.94 360V562.5C1039.94 577.5 1040.84 592.8 1042.64 608.4C1045.04 623.4 1048.64 639.6 1053.44 657H918.443ZM758.243 666C712.643 666 676.343 654.6 649.343 631.8C622.343 608.4 608.843 577.5 608.843 539.1C608.843 496.5 624.743 462.3 656.543 436.5C688.943 410.1 733.943 393 791.543 385.2L925.643 366.3V444.6L814.043 461.7C790.043 465.3 772.343 471.9 760.943 481.5C749.543 491.1 743.843 504.3 743.843 521.1C743.843 536.1 749.243 547.5 760.043 555.3C770.843 563.1 785.243 567 803.243 567C831.443 567 855.443 559.5 875.243 544.5C895.043 528.9 904.943 510.9 904.943 490.5L917.543 562.5C904.343 596.7 884.243 622.5 857.243 639.9C830.243 657.3 797.243 666 758.243 666ZM1262.8 666C1195.6 666 1142.2 652.5 1102.6 625.5C1063 598.5 1041.4 561.3 1037.8 513.9H1158.4C1161.4 534.3 1171.6 549.9 1189 560.7C1207 570.9 1231.6 576 1262.8 576C1291 576 1311.4 572.1 1324 564.3C1337.2 555.9 1343.8 544.2 1343.8 529.2C1343.8 517.8 1339.9 509.1 1332.1 503.1C1324.9 496.5 1311.4 491.1 1291.6 486.9L1217.8 471.6C1163.2 460.2 1123 443.1 1097.2 420.3C1071.4 396.9 1058.5 366.9 1058.5 330.3C1058.5 285.9 1075.6 251.4 1109.8 226.8C1144 201.6 1191.7 189 1252.9 189C1313.5 189 1361.8 201.3 1397.8 225.9C1433.8 249.9 1453.6 283.5 1457.2 326.7H1336.6C1334.2 311.1 1325.8 299.4 1311.4 291.6C1297 283.2 1276.6 279 1250.2 279C1226.2 279 1208.2 282.6 1196.2 289.8C1184.8 296.4 1179.1 306 1179.1 318.6C1179.1 329.4 1183.9 338.1 1193.5 344.7C1203.1 350.7 1219 356.1 1241.2 360.9L1324 378C1370.2 387.6 1405 405.6 1428.4 432C1452.4 457.8 1464.4 488.4 1464.4 523.8C1464.4 568.8 1446.7 603.9 1411.3 629.1C1376.5 653.7 1327 666 1262.8 666ZM1708.73 666C1657.73 666 1613.33 656.1 1575.53 636.3C1537.73 615.9 1508.33 587.7 1487.33 551.7C1466.93 515.7 1456.73 474.3 1456.73 427.5C1456.73 380.1 1466.93 338.7 1487.33 303.3C1508.33 267.3 1537.43 239.4 1574.63 219.6C1611.83 199.2 1655.03 189 1704.23 189C1751.63 189 1792.73 198.6 1827.53 217.8C1862.33 237 1889.33 263.7 1908.53 297.9C1927.73 332.1 1937.33 372.3 1937.33 418.5C1937.33 428.1 1937.03 437.1 1936.43 445.5C1935.83 453.3 1934.93 460.8 1933.73 468H1535.93V378.9H1824.83L1801.43 395.1C1801.43 357.9 1792.43 330.6 1774.43 313.2C1757.03 295.2 1733.03 286.2 1702.43 286.2C1667.03 286.2 1639.43 298.2 1619.63 322.2C1600.43 346.2 1590.83 382.2 1590.83 430.2C1590.83 477 1600.43 511.8 1619.63 534.6C1639.43 557.4 1668.83 568.8 1707.83 568.8C1729.43 568.8 1748.03 565.2 1763.63 558C1779.23 550.8 1790.93 539.1 1798.73 522.9H1925.63C1910.63 567.3 1884.83 602.4 1848.23 628.2C1812.23 653.4 1765.73 666 1708.73 666ZM1946.53 657V8.99997H2085.13V657H1946.53ZM2365.93 657V8.99997H2504.53V657H2365.93ZM2011.33 266.4H2428.93V372.6H2011.33V266.4ZM2697.79 666C2665.39 666 2637.49 659.1 2614.09 645.3C2591.29 630.9 2573.89 612 2561.89 588.6C2549.89 564.6 2543.89 537.9 2543.89 508.5V198H2678.89V482.4C2678.89 507.6 2685.19 526.5 2697.79 539.1C2710.39 551.7 2728.09 558 2750.89 558C2771.29 558 2789.29 553.2 2804.89 543.6C2820.49 534 2832.79 520.8 2841.79 504C2851.39 486.6 2856.19 466.8 2856.19 444.6L2867.89 555.3C2852.89 588.3 2830.99 615 2802.19 635.4C2773.39 655.8 2738.59 666 2697.79 666ZM2858.89 657V549H2856.19V198H2991.19V657H2858.89ZM3325.38 666C3281.58 666 3245.88 655.8 3218.28 635.4C3191.28 615 3175.38 587.1 3170.58 551.7L3177.78 550.8V657H3045.48V8.99997H3180.48V299.7L3172.38 297.9C3178.98 264.3 3196.38 237.9 3224.58 218.7C3253.38 198.9 3289.38 189 3332.58 189C3373.98 189 3409.68 198.9 3439.68 218.7C3470.28 237.9 3493.68 265.2 3509.88 300.6C3526.68 336 3535.08 377.7 3535.08 425.7C3535.08 474.3 3526.38 516.6 3508.98 552.6C3491.58 588.6 3467.28 616.5 3436.08 636.3C3404.88 656.1 3367.98 666 3325.38 666ZM3287.58 558C3319.38 558 3345.18 546.6 3364.98 523.8C3384.78 501 3394.68 468.6 3394.68 426.6C3394.68 384.6 3384.48 352.5 3364.08 330.3C3344.28 308.1 3318.18 297 3285.78 297C3254.58 297 3228.78 308.4 3208.38 331.2C3188.58 353.4 3178.68 385.5 3178.68 427.5C3178.68 469.5 3188.58 501.9 3208.38 524.7C3228.78 546.9 3255.18 558 3287.58 558Z" fill="#008C4D"></path>
</svg>
