<svg width="4698" height="1364" viewBox="0 0 4698 1364" fill="none" xmlns="http://www.w3.org/2000/svg">
<rect width="996" height="996" rx="240" fill="#4F4B51"/>
<path d="M1465.9 992C1419.1 992 1375.9 983.9 1336.3 967.7C1296.7 950.9 1262.2 927.5 1232.8 897.5C1204 867.5 1181.5 832.1 1165.3 791.3C1149.1 749.9 1141 704.9 1141 656.3C1141 607.7 1148.8 563.3 1164.4 523.1C1180.6 482.9 1203.1 448.1 1231.9 418.7C1261.3 388.7 1295.8 365.9 1335.4 350.3C1375 334.1 1418.5 326 1465.9 326C1519.3 326 1567.3 336.5 1609.9 357.5C1653.1 377.9 1688.2 407 1715.2 444.8C1742.8 482 1759.6 525.8 1765.6 576.2H1630.6C1622.8 530 1603.9 495.2 1573.9 471.8C1543.9 447.8 1508.2 435.8 1466.8 435.8C1430.2 435.8 1397.8 444.5 1369.6 461.9C1342 479.3 1320.4 504.5 1304.8 537.5C1289.2 569.9 1281.4 609.2 1281.4 655.4C1281.4 702.2 1289.2 742.7 1304.8 776.9C1321 810.5 1343.2 836.6 1371.4 855.2C1399.6 873.2 1432 882.2 1468.6 882.2C1507.6 882.2 1542.1 870.5 1572.1 847.1C1602.1 823.7 1621.6 788.9 1630.6 742.7H1767.4C1759.6 793.1 1741.9 837.2 1714.3 875C1686.7 912.2 1651.6 941 1609 961.4C1566.4 981.8 1518.7 992 1465.9 992ZM2059.44 983C2055.84 969.8 2053.14 955.7 2051.34 940.7C2050.14 925.7 2049.54 908.3 2049.54 888.5H2045.94V671.6C2045.94 653 2039.64 638.6 2027.04 628.4C2015.04 617.6 1997.04 612.2 1973.04 612.2C1950.24 612.2 1931.94 616.1 1918.14 623.9C1904.94 631.7 1896.24 643.1 1892.04 658.1H1763.34C1769.34 616.7 1790.64 582.5 1827.24 555.5C1863.84 528.5 1913.94 515 1977.54 515C2043.54 515 2093.94 529.7 2128.74 559.1C2163.54 588.5 2180.94 630.8 2180.94 686V888.5C2180.94 903.5 2181.84 918.8 2183.64 934.4C2186.04 949.4 2189.64 965.6 2194.44 983H2059.44ZM1899.24 992C1853.64 992 1817.34 980.6 1790.34 957.8C1763.34 934.4 1749.84 903.5 1749.84 865.1C1749.84 822.5 1765.74 788.3 1797.54 762.5C1829.94 736.1 1874.94 719 1932.54 711.2L2066.64 692.3V770.6L1955.04 787.7C1931.04 791.3 1913.34 797.9 1901.94 807.5C1890.54 817.1 1884.84 830.3 1884.84 847.1C1884.84 862.1 1890.24 873.5 1901.04 881.3C1911.84 889.1 1926.24 893 1944.24 893C1972.44 893 1996.44 885.5 2016.24 870.5C2036.04 854.9 2045.94 836.9 2045.94 816.5L2058.54 888.5C2045.34 922.7 2025.24 948.5 1998.24 965.9C1971.24 983.3 1938.24 992 1899.24 992ZM2403.8 992C2336.6 992 2283.2 978.5 2243.6 951.5C2204 924.5 2182.4 887.3 2178.8 839.9H2299.4C2302.4 860.3 2312.6 875.9 2330 886.7C2348 896.9 2372.6 902 2403.8 902C2432 902 2452.4 898.1 2465 890.3C2478.2 881.9 2484.8 870.2 2484.8 855.2C2484.8 843.8 2480.9 835.1 2473.1 829.1C2465.9 822.5 2452.4 817.1 2432.6 812.9L2358.8 797.6C2304.2 786.2 2264 769.1 2238.2 746.3C2212.4 722.9 2199.5 692.9 2199.5 656.3C2199.5 611.9 2216.6 577.4 2250.8 552.8C2285 527.6 2332.7 515 2393.9 515C2454.5 515 2502.8 527.3 2538.8 551.9C2574.8 575.9 2594.6 609.5 2598.2 652.7H2477.6C2475.2 637.1 2466.8 625.4 2452.4 617.6C2438 609.2 2417.6 605 2391.2 605C2367.2 605 2349.2 608.6 2337.2 615.8C2325.8 622.4 2320.1 632 2320.1 644.6C2320.1 655.4 2324.9 664.1 2334.5 670.7C2344.1 676.7 2360 682.1 2382.2 686.9L2465 704C2511.2 713.6 2546 731.6 2569.4 758C2593.4 783.8 2605.4 814.4 2605.4 849.8C2605.4 894.8 2587.7 929.9 2552.3 955.1C2517.5 979.7 2468 992 2403.8 992ZM2849.73 992C2798.73 992 2754.33 982.1 2716.53 962.3C2678.73 941.9 2649.33 913.7 2628.33 877.7C2607.93 841.7 2597.73 800.3 2597.73 753.5C2597.73 706.1 2607.93 664.7 2628.33 629.3C2649.33 593.3 2678.43 565.4 2715.63 545.6C2752.83 525.2 2796.03 515 2845.23 515C2892.63 515 2933.73 524.6 2968.53 543.8C3003.33 563 3030.33 589.7 3049.53 623.9C3068.73 658.1 3078.33 698.3 3078.33 744.5C3078.33 754.1 3078.03 763.1 3077.43 771.5C3076.83 779.3 3075.93 786.8 3074.73 794H2676.93V704.9H2965.83L2942.43 721.1C2942.43 683.9 2933.43 656.6 2915.43 639.2C2898.03 621.2 2874.03 612.2 2843.43 612.2C2808.03 612.2 2780.43 624.2 2760.63 648.2C2741.43 672.2 2731.83 708.2 2731.83 756.2C2731.83 803 2741.43 837.8 2760.63 860.6C2780.43 883.4 2809.83 894.8 2848.83 894.8C2870.43 894.8 2889.03 891.2 2904.63 884C2920.23 876.8 2931.93 865.1 2939.73 848.9H3066.63C3051.63 893.3 3025.83 928.4 2989.23 954.2C2953.23 979.4 2906.73 992 2849.73 992ZM3087.53 983V335H3226.13V983H3087.53ZM3506.93 983V335H3645.53V983H3506.93ZM3152.33 592.4H3569.93V698.6H3152.33V592.4ZM3838.79 992C3806.39 992 3778.49 985.1 3755.09 971.3C3732.29 956.9 3714.89 938 3702.89 914.6C3690.89 890.6 3684.89 863.9 3684.89 834.5V524H3819.89V808.4C3819.89 833.6 3826.19 852.5 3838.79 865.1C3851.39 877.7 3869.09 884 3891.89 884C3912.29 884 3930.29 879.2 3945.89 869.6C3961.49 860 3973.79 846.8 3982.79 830C3992.39 812.6 3997.19 792.8 3997.19 770.6L4008.89 881.3C3993.89 914.3 3971.99 941 3943.19 961.4C3914.39 981.8 3879.59 992 3838.79 992ZM3999.89 983V875H3997.19V524H4132.19V983H3999.89ZM4466.38 992C4422.58 992 4386.88 981.8 4359.28 961.4C4332.28 941 4316.38 913.1 4311.58 877.7L4318.78 876.8V983H4186.48V335H4321.48V625.7L4313.38 623.9C4319.98 590.3 4337.38 563.9 4365.58 544.7C4394.38 524.9 4430.38 515 4473.58 515C4514.98 515 4550.68 524.9 4580.68 544.7C4611.28 563.9 4634.68 591.2 4650.88 626.6C4667.68 662 4676.08 703.7 4676.08 751.7C4676.08 800.3 4667.38 842.6 4649.98 878.6C4632.58 914.6 4608.28 942.5 4577.08 962.3C4545.88 982.1 4508.98 992 4466.38 992ZM4428.58 884C4460.38 884 4486.18 872.6 4505.98 849.8C4525.78 827 4535.68 794.6 4535.68 752.6C4535.68 710.6 4525.48 678.5 4505.08 656.3C4485.28 634.1 4459.18 623 4426.78 623C4395.58 623 4369.78 634.4 4349.38 657.2C4329.58 679.4 4319.68 711.5 4319.68 753.5C4319.68 795.5 4329.58 827.9 4349.38 850.7C4369.78 872.9 4396.18 884 4428.58 884Z" fill="#4F4B51"/>
<path d="M2084.61 1250.54C2082.99 1253.74 2081.38 1256.93 2079.8 1260.17C2078.35 1263.04 2077.52 1266.48 2075.43 1268.76C2069.21 1275.51 2063.82 1282.53 2062.2 1291.84C2062.04 1292.75 2061.57 1293.73 2060.94 1294.36C2050.23 1304.34 2040.23 1315.35 2028.5 1323.91C2019.13 1330.73 2004.12 1323.79 2000.66 1312.63C1998.06 1304.3 1994.71 1295.9 1999.2 1287.11C1999.44 1286.63 1999.16 1285.84 1999.04 1285.25C1997.82 1278.74 1998.34 1272.79 2004.6 1269C1999.16 1258.98 2005.46 1250.54 2007.12 1241.67C2008.73 1232.91 2010.86 1224.19 2013.26 1215.59C2016.76 1202.97 2020.7 1190.51 2024.36 1177.96C2027 1168.97 2029.21 1159.82 2032.04 1150.9C2036.77 1136.23 2041.85 1121.68 2046.77 1107.08C2047 1106.41 2047.48 1105.86 2047.83 1105.23C2051.81 1098.48 2056.85 1092.68 2058.19 1084.16C2059.05 1078.84 2063.97 1073.16 2071.34 1072.84C2078.23 1072.53 2083.19 1075.92 2086.38 1081.68C2090.08 1088.42 2088.47 1094.85 2084.33 1100.93C2079.37 1108.23 2074.49 1115.56 2069.68 1122.94C2068.94 1124.04 2068.03 1125.78 2068.38 1126.76C2070.98 1133.98 2065.59 1138.44 2063.11 1144.04C2061.18 1148.46 2060.98 1153.59 2059.37 1158.16C2057.83 1162.54 2056.1 1167.16 2053.22 1170.71C2046.02 1179.58 2046.77 1190.7 2043.58 1200.68C2040.47 1210.47 2042.67 1221.08 2036.84 1230.78C2033.38 1236.58 2034.44 1245.14 2033.42 1252.43C2033.18 1254.05 2032.71 1255.63 2032.4 1257.25C2030.54 1267.23 2028.73 1277.24 2027.67 1287.46C2034.21 1278.15 2045.11 1272.08 2045.74 1258.86C2045.9 1255.35 2050.86 1252.04 2053.7 1248.77C2055.19 1247.07 2057.32 1245.81 2058.5 1243.95C2066.22 1231.88 2073.54 1219.54 2081.42 1207.59C2085.43 1201.47 2092.84 1196.58 2094.41 1190.11C2097.8 1176.35 2109.14 1167.47 2113.43 1154.57C2116.7 1144.83 2120.32 1135.13 2124.57 1125.78C2128.04 1118.13 2133.55 1111.3 2136.58 1103.49C2140.91 1092.29 2148.83 1083.65 2155.17 1073.87C2156.74 1071.38 2157.06 1066.93 2159.03 1066.1C2164.81 1063.73 2171.11 1062.31 2177.33 1061.52C2179.22 1061.29 2183.2 1064.21 2183.32 1065.9C2184.03 1075.41 2186.15 1084.64 2177.93 1093.43C2170.6 1101.32 2166.15 1111.93 2160.92 1121.6C2156.47 1129.76 2152.29 1138.12 2148.71 1146.72C2145.01 1155.56 2138.51 1163.45 2139.1 1173.82C2139.18 1174.93 2138.83 1176.23 2138.2 1177.13C2126.23 1195.36 2122.45 1215.95 2120.24 1237.09C2119.89 1240.52 2118.71 1243.84 2119.1 1248.61C2120.95 1246.64 2123.78 1244.94 2124.45 1242.61C2126.62 1235.04 2128.86 1227.86 2135.01 1222.1C2137.84 1219.42 2138.83 1214.73 2140.64 1210.98C2141.15 1209.95 2141.5 1208.41 2142.37 1208.02C2149.54 1204.67 2150.64 1197.65 2153.16 1191.33C2158.36 1178.24 2169.34 1168.81 2175.96 1156.7C2182.57 1144.59 2194.86 1136.59 2198.79 1122.46C2200.8 1115.25 2205.68 1108.78 2209.27 1101.99C2213.05 1094.81 2216.59 1087.48 2220.69 1080.5C2223.76 1075.29 2237.22 1073.71 2241.56 1077.7C2246.87 1082.55 2248.41 1089.92 2245.02 1096.79C2240.22 1106.57 2234.7 1116 2230.29 1125.94C2225.49 1136.82 2221.4 1148.02 2217.42 1159.27C2214.15 1168.58 2212.02 1178.28 2208.4 1187.43C2205.05 1195.91 2200.21 1203.8 2196.31 1212.04C2193.64 1217.76 2190.17 1223.48 2189.23 1229.52C2186.9 1244.39 2179.42 1257.13 2174.18 1270.78C2172.89 1274.17 2172.73 1277.99 2172.02 1281.62C2172.57 1281.9 2173.12 1282.14 2173.67 1282.41C2178.04 1276.42 2182.81 1270.66 2186.71 1264.39C2190.8 1257.8 2194.7 1250.94 2197.53 1243.76C2200.05 1237.33 2203.52 1232.12 2208.01 1226.8C2213.48 1220.29 2216.24 1211.53 2220.1 1203.68C2226.51 1190.7 2232.18 1177.33 2242.74 1166.84C2244.47 1165.1 2245.26 1162.42 2246.36 1160.09C2246.95 1158.87 2246.91 1156.74 2247.82 1156.31C2255.61 1152.44 2256.75 1144.63 2259.55 1137.73C2260.26 1135.99 2261.09 1133.63 2262.5 1133C2271.72 1128.93 2273.92 1119.7 2278.1 1112.09C2284.08 1101.24 2288.45 1089.49 2296.52 1079.79C2298.77 1077.06 2300.89 1074.11 2302.35 1070.91C2306.37 1062.15 2314.24 1057.78 2321.92 1053.32C2325.38 1051.31 2335.19 1059.27 2336.17 1064.64C2338.14 1075.33 2336.92 1085.51 2332.12 1095.45C2329.48 1100.89 2328.5 1107.12 2325.94 1112.6C2323.42 1118.01 2319.32 1122.66 2316.92 1128.11C2313.69 1135.36 2311.29 1142.98 2308.89 1150.59C2308.49 1151.81 2310.03 1153.59 2310.7 1155.16C2301.44 1162.86 2299.32 1174.26 2295.54 1184.94C2293.77 1189.95 2290.85 1194.53 2288.06 1200.09C2296.01 1199.82 2299.08 1194.65 2302.67 1189.6C2306.68 1183.96 2311.49 1178.91 2315.86 1173.51C2318.89 1169.76 2321.76 1165.85 2324.68 1162.03C2326.25 1159.98 2327.55 1156.43 2329.36 1156.15C2335.9 1155.16 2334.8 1150.59 2334.95 1145.97C2346.45 1145.38 2348.06 1133.75 2355.07 1127.95C2360.51 1123.49 2364.64 1117.65 2369.64 1112.76C2376.69 1105.82 2384.01 1100.1 2392.87 1096.31C2396.3 1094.85 2401.3 1093.59 2404.13 1095.05C2409.17 1097.61 2415 1100.06 2414.92 1108.38C2414.84 1114.69 2415.12 1119.78 2411.1 1125.5C2407.56 1130.59 2407.68 1138.08 2404.84 1143.88C2400.75 1152.28 2395.28 1160.02 2390.79 1168.26C2384.88 1179.11 2379.05 1190.03 2373.86 1201.24C2370.82 1207.78 2369.05 1214.92 2366.06 1223.68C2370.59 1220.25 2374.33 1217.96 2377.4 1215C2384.01 1208.69 2390.27 1202.06 2396.65 1195.52C2397.28 1194.88 2397.56 1193.35 2398.15 1193.27C2404.96 1192.2 2408.43 1186.8 2412.84 1182.46C2422.05 1173.35 2431.82 1164.79 2440.95 1155.6C2444.18 1152.32 2445.36 1146.8 2448.86 1144.04C2454.65 1139.47 2462.13 1140.65 2467.53 1145.38C2472.45 1149.72 2474.81 1159.7 2472.57 1165.5C2466.43 1181.43 2460.24 1197.33 2454.46 1213.38C2452.41 1219.06 2451.54 1225.14 2450.12 1230.94C2456.98 1230.74 2463.91 1230.23 2469.22 1223.76C2471.23 1221.31 2475.36 1219.66 2478.71 1219.34C2489.03 1218.31 2497.18 1212.91 2505.8 1208.02C2510.05 1205.57 2515.37 1205.06 2519.94 1203.01C2523.8 1201.31 2527.02 1198.16 2530.88 1196.58C2534.35 1195.16 2537.18 1197.13 2540.77 1198.91C2548.4 1202.77 2550.61 1208.14 2551.59 1215.67C2551.79 1217.13 2556.56 1218.43 2559.35 1218.95C2562.42 1219.5 2565.65 1219.22 2568.8 1219.02C2577.31 1218.43 2585.77 1217.53 2594.28 1217.01C2596.99 1216.86 2599.95 1216.86 2602.43 1217.76C2617.11 1223.05 2632.39 1227.27 2644.36 1238C2644.24 1238.71 2644.16 1239.38 2644.05 1240.09C2639.48 1239.85 2634.87 1239.34 2630.3 1239.46C2620.5 1239.73 2610.66 1240.01 2600.89 1240.96C2590.02 1241.98 2579.24 1243.64 2568.45 1245.26C2564.27 1245.89 2560.26 1247.46 2556.04 1248.1C2551.91 1248.73 2547.7 1248.92 2543.52 1248.81C2539.19 1248.69 2534.9 1247.94 2529.43 1247.31C2527.18 1243.16 2523.91 1237.09 2521.12 1231.96C2509.58 1236.62 2498.48 1240.25 2488.12 1245.41C2470.13 1254.41 2451.78 1262.3 2432.6 1268.25C2419.29 1272.35 2416.54 1268.53 2415.04 1254.96C2414.1 1246.24 2418.27 1236.74 2421.11 1227.9C2422.48 1223.6 2424.29 1220.13 2420.91 1216.82C2415.2 1220.37 2409.29 1223.36 2404.25 1227.43C2398.74 1231.88 2394.17 1237.52 2388.94 1242.38C2379.05 1251.53 2369.09 1260.64 2358.89 1269.47C2350.66 1276.61 2330.66 1272.39 2328.5 1261.9C2327.27 1255.98 2323.06 1249.52 2328.5 1241.23C2336.06 1229.79 2339.8 1215.79 2344.8 1202.73C2347.75 1195.04 2349.44 1186.84 2352.63 1179.26C2355.27 1172.95 2359.25 1167.16 2361.69 1160.61C2350.86 1172.64 2340.03 1184.67 2329.16 1196.7C2320.31 1206.44 2315.46 1219.1 2304.52 1227.66C2298.49 1232.36 2295.62 1241.11 2291.25 1247.98C2286.13 1255.94 2281.84 1264.7 2275.42 1271.37C2271.36 1275.59 2267.07 1279.34 2263.09 1283.79C2257.62 1289.95 2248.17 1292.83 2238.8 1291.56C2228.88 1290.26 2224.39 1283.12 2228.44 1272.71C2233.92 1258.71 2240.73 1245.22 2246.52 1231.29C2248.52 1226.44 2249.04 1220.96 2250.73 1215.95C2251.67 1213.15 2253.68 1210.74 2255.18 1208.1C2256.91 1205.02 2258.6 1201.95 2260.3 1198.87C2259.43 1198.36 2258.6 1197.84 2257.74 1197.33C2255.06 1201.35 2252.42 1205.38 2249.75 1209.36C2245.97 1215 2242.22 1220.64 2238.44 1226.28C2237.38 1227.86 2236.2 1229.32 2235.29 1230.98C2227.66 1245.29 2218.48 1259.06 2213.09 1274.17C2209.86 1283.28 2201.35 1288.29 2199.35 1297.83C2198.68 1301.07 2193.64 1303.4 2190.68 1306.2C2186.31 1310.3 2182.53 1315.27 2177.57 1318.46C2171.63 1322.33 2164.93 1326.39 2158.16 1327.26C2151.27 1328.13 2143.28 1326.16 2140.16 1317.83C2138.94 1314.6 2137.17 1310.81 2137.84 1307.74C2140.64 1295.15 2144.26 1282.77 2147.57 1270.34C2147.65 1270.11 2147.72 1269.87 2147.76 1269.67C2148.98 1262.22 2150.21 1254.8 2151.5 1246.83C2149.93 1248.84 2148.32 1250.46 2147.17 1252.39C2140.01 1264.58 2132.92 1276.85 2125.87 1289.12C2122.84 1294.36 2099.84 1302.29 2093.74 1300.04C2086.81 1297.52 2081.85 1284.23 2083.5 1274.92C2084.8 1267.42 2084.96 1259.69 2085.63 1252.08C2085.35 1251.45 2085 1251.01 2084.61 1250.54Z" fill="#4F4B51" fill-opacity="0.7"/>
<path d="M2701.93 1227.39C2697.2 1233.19 2693.86 1239.97 2688.42 1242.81C2685.51 1244.35 2678.78 1239.65 2674.33 1236.85C2673.11 1236.06 2673.54 1231.88 2674.01 1229.4C2674.6 1226.2 2675.66 1222.97 2677.16 1220.13C2679.25 1216.15 2689.17 1213.46 2694.21 1216.46C2697.36 1218.35 2698.9 1222.93 2701.93 1227.39Z" fill="#4F4B51" fill-opacity="0.7"/>
<path d="M2537.77 1138.95C2537.73 1146.72 2534.9 1151.1 2529.74 1150.9C2523.91 1150.71 2521.47 1146.17 2522.14 1141.79C2522.93 1136.82 2521.91 1129.6 2528.95 1127.99C2534.23 1126.8 2537.81 1131.89 2537.77 1138.95Z" fill="#4F4B51" fill-opacity="0.7"/>
<path d="M271.6 1301.7C257.2 1301.7 245.1 1298.2 235.3 1291.2C225.5 1284.2 218.8 1274.3 215.2 1261.5L218.5 1260.9V1299H196V1083H220V1181.7L216.7 1180.8C220.5 1169 227.4 1159.8 237.4 1153.2C247.6 1146.4 259.7 1143 273.7 1143C287.3 1143 299.1 1146.3 309.1 1152.9C319.3 1159.5 327.2 1168.7 332.8 1180.5C338.4 1192.3 341.2 1206.1 341.2 1221.9C341.2 1237.9 338.3 1251.9 332.5 1263.9C326.7 1275.9 318.6 1285.2 308.2 1291.8C297.8 1298.4 285.6 1301.7 271.6 1301.7ZM268 1280.7C283.2 1280.7 295.1 1275.5 303.7 1265.1C312.3 1254.5 316.6 1240.1 316.6 1221.9C316.6 1203.9 312.3 1189.8 303.7 1179.6C295.1 1169.2 283.2 1164 268 1164C252.8 1164 240.8 1169.3 232 1179.9C223.2 1190.3 218.8 1204.6 218.8 1222.8C218.8 1240.6 223.2 1254.7 232 1265.1C240.8 1275.5 252.8 1280.7 268 1280.7ZM368.739 1360.5L402.939 1281L408.339 1272.6L458.439 1146H483.039L394.239 1360.5H368.739ZM405.639 1300.5L336.939 1146H363.339L422.439 1284.3L405.639 1300.5ZM581.329 1299L518.029 1146H543.829L596.629 1282.8H587.029L639.529 1146H664.129L600.829 1299H581.329ZM673.609 1299V1146H697.609V1299H673.609ZM671.809 1111.2V1083H699.409V1111.2H671.809ZM727.68 1299V1146H750.18V1182H751.68V1299H727.68ZM837.18 1299V1198.8C837.18 1187.2 834.28 1178.5 828.48 1172.7C822.68 1166.9 814.08 1164 802.68 1164C792.68 1164 783.78 1166.2 775.98 1170.6C768.38 1175 762.38 1181.1 757.98 1188.9C753.78 1196.7 751.68 1205.8 751.68 1216.2L747.78 1179.9C752.98 1168.5 760.88 1159.5 771.48 1152.9C782.28 1146.3 794.48 1143 808.08 1143C824.08 1143 836.88 1147.6 846.48 1156.8C856.28 1165.8 861.18 1177.7 861.18 1192.5V1299H837.18ZM950.17 1363.5C931.97 1363.5 916.77 1359.2 904.57 1350.6C892.57 1342.2 885.27 1331 882.67 1317H905.47C907.67 1325 912.57 1331.3 920.17 1335.9C927.97 1340.7 938.47 1343.1 951.67 1343.1C967.27 1343.1 979.07 1338.8 987.07 1330.2C995.07 1321.8 999.07 1309.4 999.07 1293V1260.3L1002.07 1260.9C998.67 1272.5 991.87 1281.8 981.67 1288.8C971.47 1295.6 959.37 1299 945.37 1299C931.97 1299 920.17 1295.8 909.97 1289.4C899.77 1282.8 891.87 1273.7 886.27 1262.1C880.67 1250.5 877.87 1237 877.87 1221.6C877.87 1206 880.77 1192.3 886.57 1180.5C892.37 1168.7 900.47 1159.6 910.87 1153.2C921.47 1146.6 933.77 1143.3 947.77 1143.3C962.17 1143.3 974.17 1146.8 983.77 1153.8C993.57 1160.8 1000.07 1170.8 1003.27 1183.8L1000.57 1184.1V1146H1023.07V1293C1023.07 1314.8 1016.57 1332 1003.57 1344.6C990.57 1357.2 972.77 1363.5 950.17 1363.5ZM951.37 1278.3C966.37 1278.3 978.27 1273.1 987.07 1262.7C995.87 1252.3 1000.27 1238.2 1000.27 1220.4C1000.27 1203 995.87 1189.3 987.07 1179.3C978.27 1169.1 966.37 1164 951.37 1164C936.17 1164 924.17 1169.1 915.37 1179.3C906.77 1189.5 902.47 1203.5 902.47 1221.3C902.47 1238.7 906.87 1252.6 915.67 1263C924.47 1273.2 936.37 1278.3 951.37 1278.3ZM1053.2 1299V1146H1075.7V1185H1077.2V1299H1053.2ZM1077.2 1219.2L1073.3 1182.9C1076.9 1169.9 1083.3 1160 1092.5 1153.2C1101.7 1146.4 1112.3 1143 1124.3 1143C1129.3 1143 1132.7 1143.4 1134.5 1144.2V1167.3C1133.5 1166.9 1132.1 1166.7 1130.3 1166.7C1128.5 1166.5 1126.3 1166.4 1123.7 1166.4C1108.5 1166.4 1096.9 1171 1088.9 1180.2C1081.1 1189.2 1077.2 1202.2 1077.2 1219.2ZM1205.13 1302C1190.53 1302 1177.63 1298.6 1166.43 1291.8C1155.23 1284.8 1146.43 1275.3 1140.03 1263.3C1133.63 1251.3 1130.43 1237.5 1130.43 1221.9C1130.43 1206.3 1133.53 1192.6 1139.73 1180.8C1146.13 1168.8 1155.03 1159.5 1166.43 1152.9C1177.83 1146.3 1190.93 1143 1205.73 1143C1219.93 1143 1232.23 1146.1 1242.63 1152.3C1253.23 1158.5 1261.33 1167.2 1266.93 1178.4C1272.73 1189.6 1275.63 1202.8 1275.63 1218C1275.63 1220 1275.53 1221.9 1275.33 1223.7C1275.33 1225.5 1275.13 1227.5 1274.73 1229.7H1148.43V1209.6H1260.03L1252.23 1220.7C1252.23 1202.3 1248.13 1188.2 1239.93 1178.4C1231.93 1168.4 1220.53 1163.4 1205.73 1163.4C1190.53 1163.4 1178.23 1168.7 1168.83 1179.3C1159.63 1189.7 1155.03 1203.8 1155.03 1221.6C1155.03 1239.8 1159.63 1254.4 1168.83 1265.4C1178.23 1276.2 1190.73 1281.6 1206.33 1281.6C1216.13 1281.6 1224.73 1279.5 1232.13 1275.3C1239.53 1270.9 1244.93 1264.7 1248.33 1256.7H1271.13C1266.13 1270.7 1257.73 1281.8 1245.93 1290C1234.33 1298 1220.73 1302 1205.13 1302ZM1293.77 1299V1146H1316.27V1182H1317.77V1299H1293.77ZM1403.27 1299V1198.8C1403.27 1187.2 1400.37 1178.5 1394.57 1172.7C1388.77 1166.9 1380.17 1164 1368.77 1164C1358.77 1164 1349.87 1166.2 1342.07 1170.6C1334.47 1175 1328.47 1181.1 1324.07 1188.9C1319.87 1196.7 1317.77 1205.8 1317.77 1216.2L1313.87 1179.9C1319.07 1168.5 1326.97 1159.5 1337.57 1152.9C1348.37 1146.3 1360.57 1143 1374.17 1143C1390.17 1143 1402.97 1147.6 1412.57 1156.8C1422.37 1165.8 1427.27 1177.7 1427.27 1192.5V1299H1403.27ZM1442.44 1299V1268.1H1473.34V1299H1442.44ZM1502.1 1299V1146H1524.6V1182H1526.1V1299H1502.1ZM1605.3 1299V1197.6C1605.3 1186 1602.7 1177.5 1597.5 1172.1C1592.3 1166.7 1584.8 1164 1575 1164C1565.8 1164 1557.5 1166.2 1550.1 1170.6C1542.7 1175 1536.8 1181.1 1532.4 1188.9C1528.2 1196.7 1526.1 1205.8 1526.1 1216.2L1522.2 1179.9C1527.4 1168.5 1535.2 1159.5 1545.6 1152.9C1556 1146.3 1567.3 1143 1579.5 1143C1594.3 1143 1606.3 1147.4 1615.5 1156.2C1624.7 1164.8 1629.3 1176.5 1629.3 1191.3V1299H1605.3ZM1708.5 1299V1197.6C1708.5 1186 1705.9 1177.5 1700.7 1172.1C1695.5 1166.7 1688 1164 1678.2 1164C1669 1164 1660.7 1166.2 1653.3 1170.6C1645.9 1175 1640 1181.1 1635.6 1188.9C1631.4 1196.7 1629.3 1205.8 1629.3 1216.2L1623.3 1179.9C1628.5 1168.5 1636.5 1159.5 1647.3 1152.9C1658.1 1146.3 1669.7 1143 1682.1 1143C1696.9 1143 1709 1147.4 1718.4 1156.2C1727.8 1164.8 1732.5 1176.5 1732.5 1191.3V1299H1708.5ZM1823.36 1302C1808.76 1302 1795.86 1298.6 1784.66 1291.8C1773.46 1284.8 1764.66 1275.3 1758.26 1263.3C1751.86 1251.3 1748.66 1237.5 1748.66 1221.9C1748.66 1206.3 1751.76 1192.6 1757.96 1180.8C1764.36 1168.8 1773.26 1159.5 1784.66 1152.9C1796.06 1146.3 1809.16 1143 1823.96 1143C1838.16 1143 1850.46 1146.1 1860.86 1152.3C1871.46 1158.5 1879.56 1167.2 1885.16 1178.4C1890.96 1189.6 1893.86 1202.8 1893.86 1218C1893.86 1220 1893.76 1221.9 1893.56 1223.7C1893.56 1225.5 1893.36 1227.5 1892.96 1229.7H1766.66V1209.6H1878.26L1870.46 1220.7C1870.46 1202.3 1866.36 1188.2 1858.16 1178.4C1850.16 1168.4 1838.76 1163.4 1823.96 1163.4C1808.76 1163.4 1796.46 1168.7 1787.06 1179.3C1777.86 1189.7 1773.26 1203.8 1773.26 1221.6C1773.26 1239.8 1777.86 1254.4 1787.06 1265.4C1796.46 1276.2 1808.96 1281.6 1824.56 1281.6C1834.36 1281.6 1842.96 1279.5 1850.36 1275.3C1857.76 1270.9 1863.16 1264.7 1866.56 1256.7H1889.36C1884.36 1270.7 1875.96 1281.8 1864.16 1290C1852.56 1298 1838.96 1302 1823.36 1302Z" fill="#4F4B51" fill-opacity="0.7"/>
</svg>
